G04 #@! TF.GenerationSoftware,KiCad,Pcbnew,(5.1.4)-1*
G04 #@! TF.CreationDate,2019-11-29T14:15:36+00:00*
G04 #@! TF.ProjectId,MAX7219_Clock,4d415837-3231-4395-9f43-6c6f636b2e6b,rev?*
G04 #@! TF.SameCoordinates,Original*
G04 #@! TF.FileFunction,Legend,Bot*
G04 #@! TF.FilePolarity,Positive*
%FSLAX46Y46*%
G04 Gerber Fmt 4.6, Leading zero omitted, Abs format (unit mm)*
G04 Created by KiCad (PCBNEW (5.1.4)-1) date 2019-11-29 14:15:36*
%MOMM*%
%LPD*%
G04 APERTURE LIST*
%ADD10C,0.150000*%
%ADD11C,0.120000*%
%ADD12C,0.100000*%
G04 APERTURE END LIST*
D10*
X166134523Y-76854880D02*
X166182142Y-76950119D01*
X166182142Y-77140595D01*
X166134523Y-77235833D01*
X166039285Y-77331071D01*
X165944047Y-77378690D01*
X165753571Y-77378690D01*
X165658333Y-77331071D01*
X165563095Y-77235833D01*
X165515476Y-77140595D01*
X165515476Y-76950119D01*
X165563095Y-76854880D01*
X166515476Y-77045357D02*
X166467857Y-77283452D01*
X166325000Y-77521547D01*
X166086904Y-77664404D01*
X165848809Y-77712023D01*
X165610714Y-77664404D01*
X165372619Y-77521547D01*
X165229761Y-77283452D01*
X165182142Y-77045357D01*
X165229761Y-76807261D01*
X165372619Y-76569166D01*
X165610714Y-76426309D01*
X165848809Y-76378690D01*
X166086904Y-76426309D01*
X166325000Y-76569166D01*
X166467857Y-76807261D01*
X166515476Y-77045357D01*
X166277380Y-75997738D02*
X166325000Y-75950119D01*
X166372619Y-75854880D01*
X166372619Y-75616785D01*
X166325000Y-75521547D01*
X166277380Y-75473928D01*
X166182142Y-75426309D01*
X166086904Y-75426309D01*
X165944047Y-75473928D01*
X165372619Y-76045357D01*
X165372619Y-75426309D01*
X166372619Y-74807261D02*
X166372619Y-74712023D01*
X166325000Y-74616785D01*
X166277380Y-74569166D01*
X166182142Y-74521547D01*
X165991666Y-74473928D01*
X165753571Y-74473928D01*
X165563095Y-74521547D01*
X165467857Y-74569166D01*
X165420238Y-74616785D01*
X165372619Y-74712023D01*
X165372619Y-74807261D01*
X165420238Y-74902500D01*
X165467857Y-74950119D01*
X165563095Y-74997738D01*
X165753571Y-75045357D01*
X165991666Y-75045357D01*
X166182142Y-74997738D01*
X166277380Y-74950119D01*
X166325000Y-74902500D01*
X166372619Y-74807261D01*
X165372619Y-73521547D02*
X165372619Y-74092976D01*
X165372619Y-73807261D02*
X166372619Y-73807261D01*
X166229761Y-73902500D01*
X166134523Y-73997738D01*
X166086904Y-74092976D01*
X165372619Y-73045357D02*
X165372619Y-72854880D01*
X165420238Y-72759642D01*
X165467857Y-72712023D01*
X165610714Y-72616785D01*
X165801190Y-72569166D01*
X166182142Y-72569166D01*
X166277380Y-72616785D01*
X166325000Y-72664404D01*
X166372619Y-72759642D01*
X166372619Y-72950119D01*
X166325000Y-73045357D01*
X166277380Y-73092976D01*
X166182142Y-73140595D01*
X165944047Y-73140595D01*
X165848809Y-73092976D01*
X165801190Y-73045357D01*
X165753571Y-72950119D01*
X165753571Y-72759642D01*
X165801190Y-72664404D01*
X165848809Y-72616785D01*
X165944047Y-72569166D01*
X165372619Y-71378690D02*
X166372619Y-71378690D01*
X166372619Y-70997738D01*
X166325000Y-70902500D01*
X166277380Y-70854880D01*
X166182142Y-70807261D01*
X166039285Y-70807261D01*
X165944047Y-70854880D01*
X165896428Y-70902500D01*
X165848809Y-70997738D01*
X165848809Y-71378690D01*
X165372619Y-69950119D02*
X165896428Y-69950119D01*
X165991666Y-69997738D01*
X166039285Y-70092976D01*
X166039285Y-70283452D01*
X165991666Y-70378690D01*
X165420238Y-69950119D02*
X165372619Y-70045357D01*
X165372619Y-70283452D01*
X165420238Y-70378690D01*
X165515476Y-70426309D01*
X165610714Y-70426309D01*
X165705952Y-70378690D01*
X165753571Y-70283452D01*
X165753571Y-70045357D01*
X165801190Y-69950119D01*
X166039285Y-69045357D02*
X165372619Y-69045357D01*
X166039285Y-69473928D02*
X165515476Y-69473928D01*
X165420238Y-69426309D01*
X165372619Y-69331071D01*
X165372619Y-69188214D01*
X165420238Y-69092976D01*
X165467857Y-69045357D01*
X165372619Y-68426309D02*
X165420238Y-68521547D01*
X165515476Y-68569166D01*
X166372619Y-68569166D01*
X165277380Y-66616785D02*
X165325000Y-66712023D01*
X165420238Y-66807261D01*
X165563095Y-66950119D01*
X165610714Y-67045357D01*
X165610714Y-67140595D01*
X165372619Y-67092976D02*
X165420238Y-67188214D01*
X165515476Y-67283452D01*
X165705952Y-67331071D01*
X166039285Y-67331071D01*
X166229761Y-67283452D01*
X166325000Y-67188214D01*
X166372619Y-67092976D01*
X166372619Y-66902500D01*
X166325000Y-66807261D01*
X166229761Y-66712023D01*
X166039285Y-66664404D01*
X165705952Y-66664404D01*
X165515476Y-66712023D01*
X165420238Y-66807261D01*
X165372619Y-66902500D01*
X165372619Y-67092976D01*
X166039285Y-65807261D02*
X165372619Y-65807261D01*
X166039285Y-66235833D02*
X165515476Y-66235833D01*
X165420238Y-66188214D01*
X165372619Y-66092976D01*
X165372619Y-65950119D01*
X165420238Y-65854880D01*
X165467857Y-65807261D01*
X165372619Y-65331071D02*
X166039285Y-65331071D01*
X165848809Y-65331071D02*
X165944047Y-65283452D01*
X165991666Y-65235833D01*
X166039285Y-65140595D01*
X166039285Y-65045357D01*
X165420238Y-64331071D02*
X165372619Y-64426309D01*
X165372619Y-64616785D01*
X165420238Y-64712023D01*
X165515476Y-64759642D01*
X165896428Y-64759642D01*
X165991666Y-64712023D01*
X166039285Y-64616785D01*
X166039285Y-64426309D01*
X165991666Y-64331071D01*
X165896428Y-64283452D01*
X165801190Y-64283452D01*
X165705952Y-64759642D01*
X165420238Y-63902500D02*
X165372619Y-63807261D01*
X165372619Y-63616785D01*
X165420238Y-63521547D01*
X165515476Y-63473928D01*
X165563095Y-63473928D01*
X165658333Y-63521547D01*
X165705952Y-63616785D01*
X165705952Y-63759642D01*
X165753571Y-63854880D01*
X165848809Y-63902500D01*
X165896428Y-63902500D01*
X165991666Y-63854880D01*
X166039285Y-63759642D01*
X166039285Y-63616785D01*
X165991666Y-63521547D01*
X165372619Y-63045357D02*
X166372619Y-63045357D01*
X165372619Y-62616785D02*
X165896428Y-62616785D01*
X165991666Y-62664404D01*
X166039285Y-62759642D01*
X166039285Y-62902500D01*
X165991666Y-62997738D01*
X165944047Y-63045357D01*
X165372619Y-62140595D02*
X166039285Y-62140595D01*
X166372619Y-62140595D02*
X166325000Y-62188214D01*
X166277380Y-62140595D01*
X166325000Y-62092976D01*
X166372619Y-62140595D01*
X166277380Y-62140595D01*
X164675000Y-77140595D02*
X164722619Y-77235833D01*
X164722619Y-77378690D01*
X164675000Y-77521547D01*
X164579761Y-77616785D01*
X164484523Y-77664404D01*
X164294047Y-77712023D01*
X164151190Y-77712023D01*
X163960714Y-77664404D01*
X163865476Y-77616785D01*
X163770238Y-77521547D01*
X163722619Y-77378690D01*
X163722619Y-77283452D01*
X163770238Y-77140595D01*
X163817857Y-77092976D01*
X164151190Y-77092976D01*
X164151190Y-77283452D01*
X163722619Y-76664404D02*
X164722619Y-76664404D01*
X164722619Y-76283452D01*
X164675000Y-76188214D01*
X164627380Y-76140595D01*
X164532142Y-76092976D01*
X164389285Y-76092976D01*
X164294047Y-76140595D01*
X164246428Y-76188214D01*
X164198809Y-76283452D01*
X164198809Y-76664404D01*
X163722619Y-75188214D02*
X163722619Y-75664404D01*
X164722619Y-75664404D01*
X164389285Y-74950119D02*
X163722619Y-74712023D01*
X164389285Y-74473928D01*
X164722619Y-74188214D02*
X164722619Y-73569166D01*
X164341666Y-73902500D01*
X164341666Y-73759642D01*
X164294047Y-73664404D01*
X164246428Y-73616785D01*
X164151190Y-73569166D01*
X163913095Y-73569166D01*
X163817857Y-73616785D01*
X163770238Y-73664404D01*
X163722619Y-73759642D01*
X163722619Y-74045357D01*
X163770238Y-74140595D01*
X163817857Y-74188214D01*
D11*
X40000000Y-50000000D02*
X40000000Y-90000000D01*
X160000000Y-70000000D02*
X40000000Y-70000000D01*
X160000000Y-50000000D02*
X160000000Y-90000000D01*
X140000000Y-90000000D02*
X140000000Y-50000000D01*
X120000000Y-50000000D02*
X120000000Y-90000000D01*
X100000000Y-90000000D02*
X100000000Y-50000000D01*
X80000000Y-50000000D02*
X80000000Y-90000000D01*
X60000000Y-50000000D02*
X60000000Y-90000000D01*
D10*
X35964285Y-62452380D02*
X36535714Y-62452380D01*
X36250000Y-62452380D02*
X36250000Y-61452380D01*
X36345238Y-61595238D01*
X36440476Y-61690476D01*
X36535714Y-61738095D01*
X33797619Y-61452380D02*
X33702380Y-61452380D01*
X33607142Y-61500000D01*
X33559523Y-61547619D01*
X33511904Y-61642857D01*
X33464285Y-61833333D01*
X33464285Y-62071428D01*
X33511904Y-62261904D01*
X33559523Y-62357142D01*
X33607142Y-62404761D01*
X33702380Y-62452380D01*
X33797619Y-62452380D01*
X33892857Y-62404761D01*
X33940476Y-62357142D01*
X33988095Y-62261904D01*
X34035714Y-62071428D01*
X34035714Y-61833333D01*
X33988095Y-61642857D01*
X33940476Y-61547619D01*
X33892857Y-61500000D01*
X33797619Y-61452380D01*
X31607142Y-74833333D02*
X31654761Y-74785714D01*
X31702380Y-74642857D01*
X31702380Y-74547619D01*
X31654761Y-74404761D01*
X31559523Y-74309523D01*
X31464285Y-74261904D01*
X31273809Y-74214285D01*
X31130952Y-74214285D01*
X30940476Y-74261904D01*
X30845238Y-74309523D01*
X30750000Y-74404761D01*
X30702380Y-74547619D01*
X30702380Y-74642857D01*
X30750000Y-74785714D01*
X30797619Y-74833333D01*
X31654761Y-75214285D02*
X31702380Y-75357142D01*
X31702380Y-75595238D01*
X31654761Y-75690476D01*
X31607142Y-75738095D01*
X31511904Y-75785714D01*
X31416666Y-75785714D01*
X31321428Y-75738095D01*
X31273809Y-75690476D01*
X31226190Y-75595238D01*
X31178571Y-75404761D01*
X31130952Y-75309523D01*
X31083333Y-75261904D01*
X30988095Y-75214285D01*
X30892857Y-75214285D01*
X30797619Y-75261904D01*
X30750000Y-75309523D01*
X30702380Y-75404761D01*
X30702380Y-75642857D01*
X30750000Y-75785714D01*
X31607142Y-72404761D02*
X31654761Y-72357142D01*
X31702380Y-72214285D01*
X31702380Y-72119047D01*
X31654761Y-71976190D01*
X31559523Y-71880952D01*
X31464285Y-71833333D01*
X31273809Y-71785714D01*
X31130952Y-71785714D01*
X30940476Y-71833333D01*
X30845238Y-71880952D01*
X30750000Y-71976190D01*
X30702380Y-72119047D01*
X30702380Y-72214285D01*
X30750000Y-72357142D01*
X30797619Y-72404761D01*
X31702380Y-73309523D02*
X31702380Y-72833333D01*
X30702380Y-72833333D01*
X31702380Y-69738095D02*
X30702380Y-69738095D01*
X30702380Y-69976190D01*
X30750000Y-70119047D01*
X30845238Y-70214285D01*
X30940476Y-70261904D01*
X31130952Y-70309523D01*
X31273809Y-70309523D01*
X31464285Y-70261904D01*
X31559523Y-70214285D01*
X31654761Y-70119047D01*
X31702380Y-69976190D01*
X31702380Y-69738095D01*
X30750000Y-67761904D02*
X30702380Y-67666666D01*
X30702380Y-67523809D01*
X30750000Y-67380952D01*
X30845238Y-67285714D01*
X30940476Y-67238095D01*
X31130952Y-67190476D01*
X31273809Y-67190476D01*
X31464285Y-67238095D01*
X31559523Y-67285714D01*
X31654761Y-67380952D01*
X31702380Y-67523809D01*
X31702380Y-67619047D01*
X31654761Y-67761904D01*
X31607142Y-67809523D01*
X31273809Y-67809523D01*
X31273809Y-67619047D01*
X30702380Y-64559523D02*
X30702380Y-64083333D01*
X31178571Y-64035714D01*
X31130952Y-64083333D01*
X31083333Y-64178571D01*
X31083333Y-64416666D01*
X31130952Y-64511904D01*
X31178571Y-64559523D01*
X31273809Y-64607142D01*
X31511904Y-64607142D01*
X31607142Y-64559523D01*
X31654761Y-64511904D01*
X31702380Y-64416666D01*
X31702380Y-64178571D01*
X31654761Y-64083333D01*
X31607142Y-64035714D01*
X30702380Y-64892857D02*
X31702380Y-65226190D01*
X30702380Y-65559523D01*
D11*
X32250000Y-76500000D02*
X32250000Y-66000000D01*
X37750000Y-76500000D02*
X32250000Y-76500000D01*
X37750000Y-63250000D02*
X37750000Y-76500000D01*
X35000000Y-63250000D02*
X37750000Y-63250000D01*
X32250000Y-63250000D02*
X32250000Y-64750000D01*
X33750000Y-63250000D02*
X32250000Y-63250000D01*
D12*
G36*
X44250000Y-71750000D02*
G01*
X43750000Y-71250000D01*
X44250000Y-70750000D01*
X44250000Y-71750000D01*
G37*
X44250000Y-71750000D02*
X43750000Y-71250000D01*
X44250000Y-70750000D01*
X44250000Y-71750000D01*
G36*
X64250000Y-71750000D02*
G01*
X63750000Y-71250000D01*
X64250000Y-70750000D01*
X64250000Y-71750000D01*
G37*
X64250000Y-71750000D02*
X63750000Y-71250000D01*
X64250000Y-70750000D01*
X64250000Y-71750000D01*
G36*
X84250000Y-71750000D02*
G01*
X83750000Y-71250000D01*
X84250000Y-70750000D01*
X84250000Y-71750000D01*
G37*
X84250000Y-71750000D02*
X83750000Y-71250000D01*
X84250000Y-70750000D01*
X84250000Y-71750000D01*
G36*
X104250000Y-71750000D02*
G01*
X103750000Y-71250000D01*
X104250000Y-70750000D01*
X104250000Y-71750000D01*
G37*
X104250000Y-71750000D02*
X103750000Y-71250000D01*
X104250000Y-70750000D01*
X104250000Y-71750000D01*
G36*
X124250000Y-71750000D02*
G01*
X123750000Y-71250000D01*
X124250000Y-70750000D01*
X124250000Y-71750000D01*
G37*
X124250000Y-71750000D02*
X123750000Y-71250000D01*
X124250000Y-70750000D01*
X124250000Y-71750000D01*
G36*
X144250000Y-71750000D02*
G01*
X143750000Y-71250000D01*
X144250000Y-70750000D01*
X144250000Y-71750000D01*
G37*
X144250000Y-71750000D02*
X143750000Y-71250000D01*
X144250000Y-70750000D01*
X144250000Y-71750000D01*
G36*
X144250000Y-51750000D02*
G01*
X143750000Y-51250000D01*
X144250000Y-50750000D01*
X144250000Y-51750000D01*
G37*
X144250000Y-51750000D02*
X143750000Y-51250000D01*
X144250000Y-50750000D01*
X144250000Y-51750000D01*
G36*
X124250000Y-51750000D02*
G01*
X123750000Y-51250000D01*
X124250000Y-50750000D01*
X124250000Y-51750000D01*
G37*
X124250000Y-51750000D02*
X123750000Y-51250000D01*
X124250000Y-50750000D01*
X124250000Y-51750000D01*
G36*
X104250000Y-51750000D02*
G01*
X103750000Y-51250000D01*
X104250000Y-50750000D01*
X104250000Y-51750000D01*
G37*
X104250000Y-51750000D02*
X103750000Y-51250000D01*
X104250000Y-50750000D01*
X104250000Y-51750000D01*
G36*
X84250000Y-51750000D02*
G01*
X83750000Y-51250000D01*
X84250000Y-50750000D01*
X84250000Y-51750000D01*
G37*
X84250000Y-51750000D02*
X83750000Y-51250000D01*
X84250000Y-50750000D01*
X84250000Y-51750000D01*
G36*
X64250000Y-51750000D02*
G01*
X63750000Y-51250000D01*
X64250000Y-50750000D01*
X64250000Y-51750000D01*
G37*
X64250000Y-51750000D02*
X63750000Y-51250000D01*
X64250000Y-50750000D01*
X64250000Y-51750000D01*
G36*
X44250000Y-51750000D02*
G01*
X43750000Y-51250000D01*
X44250000Y-50750000D01*
X44250000Y-51750000D01*
G37*
X44250000Y-51750000D02*
X43750000Y-51250000D01*
X44250000Y-50750000D01*
X44250000Y-51750000D01*
D11*
X49490000Y-58296267D02*
X49490000Y-57953733D01*
X50510000Y-58296267D02*
X50510000Y-57953733D01*
X69490000Y-58296267D02*
X69490000Y-57953733D01*
X70510000Y-58296267D02*
X70510000Y-57953733D01*
X89490000Y-58296267D02*
X89490000Y-57953733D01*
X90510000Y-58296267D02*
X90510000Y-57953733D01*
X110510000Y-58296267D02*
X110510000Y-57953733D01*
X109490000Y-58296267D02*
X109490000Y-57953733D01*
X130510000Y-58296267D02*
X130510000Y-57953733D01*
X129490000Y-58296267D02*
X129490000Y-57953733D01*
X49490000Y-78296267D02*
X49490000Y-77953733D01*
X50510000Y-78296267D02*
X50510000Y-77953733D01*
X69490000Y-78296267D02*
X69490000Y-77953733D01*
X70510000Y-78296267D02*
X70510000Y-77953733D01*
X90510000Y-78296267D02*
X90510000Y-77953733D01*
X89490000Y-78296267D02*
X89490000Y-77953733D01*
X110510000Y-78296267D02*
X110510000Y-77953733D01*
X109490000Y-78296267D02*
X109490000Y-77953733D01*
X130510000Y-78296267D02*
X130510000Y-77953733D01*
X129490000Y-78296267D02*
X129490000Y-77953733D01*
X150510000Y-78296267D02*
X150510000Y-77953733D01*
X149490000Y-78296267D02*
X149490000Y-77953733D01*
X149490000Y-58296267D02*
X149490000Y-57953733D01*
X150510000Y-58296267D02*
X150510000Y-57953733D01*
X50510000Y-62046267D02*
X50510000Y-61703733D01*
X49490000Y-62046267D02*
X49490000Y-61703733D01*
X69490000Y-62046267D02*
X69490000Y-61703733D01*
X70510000Y-62046267D02*
X70510000Y-61703733D01*
X89490000Y-62046267D02*
X89490000Y-61703733D01*
X90510000Y-62046267D02*
X90510000Y-61703733D01*
X110510000Y-62046267D02*
X110510000Y-61703733D01*
X109490000Y-62046267D02*
X109490000Y-61703733D01*
X130510000Y-62046267D02*
X130510000Y-61703733D01*
X129490000Y-62046267D02*
X129490000Y-61703733D01*
X50510000Y-82046267D02*
X50510000Y-81703733D01*
X49490000Y-82046267D02*
X49490000Y-81703733D01*
X69490000Y-82046267D02*
X69490000Y-81703733D01*
X70510000Y-82046267D02*
X70510000Y-81703733D01*
X89490000Y-82046267D02*
X89490000Y-81703733D01*
X90510000Y-82046267D02*
X90510000Y-81703733D01*
X109490000Y-82046267D02*
X109490000Y-81703733D01*
X110510000Y-82046267D02*
X110510000Y-81703733D01*
X130510000Y-82046267D02*
X130510000Y-81703733D01*
X129490000Y-82046267D02*
X129490000Y-81703733D01*
X39760000Y-73203733D02*
X39760000Y-73546267D01*
X38740000Y-73203733D02*
X38740000Y-73546267D01*
X50578733Y-69490000D02*
X50921267Y-69490000D01*
X50578733Y-70510000D02*
X50921267Y-70510000D01*
X35171267Y-77990000D02*
X34828733Y-77990000D01*
X35171267Y-79010000D02*
X34828733Y-79010000D01*
X150510000Y-62046267D02*
X150510000Y-61703733D01*
X149490000Y-62046267D02*
X149490000Y-61703733D01*
X149490000Y-82046267D02*
X149490000Y-81703733D01*
X150510000Y-82046267D02*
X150510000Y-81703733D01*
D10*
X48857142Y-57958333D02*
X48904761Y-57910714D01*
X48952380Y-57767857D01*
X48952380Y-57672619D01*
X48904761Y-57529761D01*
X48809523Y-57434523D01*
X48714285Y-57386904D01*
X48523809Y-57339285D01*
X48380952Y-57339285D01*
X48190476Y-57386904D01*
X48095238Y-57434523D01*
X48000000Y-57529761D01*
X47952380Y-57672619D01*
X47952380Y-57767857D01*
X48000000Y-57910714D01*
X48047619Y-57958333D01*
X48952380Y-58910714D02*
X48952380Y-58339285D01*
X48952380Y-58625000D02*
X47952380Y-58625000D01*
X48095238Y-58529761D01*
X48190476Y-58434523D01*
X48238095Y-58339285D01*
X68857142Y-58083333D02*
X68904761Y-58035714D01*
X68952380Y-57892857D01*
X68952380Y-57797619D01*
X68904761Y-57654761D01*
X68809523Y-57559523D01*
X68714285Y-57511904D01*
X68523809Y-57464285D01*
X68380952Y-57464285D01*
X68190476Y-57511904D01*
X68095238Y-57559523D01*
X68000000Y-57654761D01*
X67952380Y-57797619D01*
X67952380Y-57892857D01*
X68000000Y-58035714D01*
X68047619Y-58083333D01*
X68047619Y-58464285D02*
X68000000Y-58511904D01*
X67952380Y-58607142D01*
X67952380Y-58845238D01*
X68000000Y-58940476D01*
X68047619Y-58988095D01*
X68142857Y-59035714D01*
X68238095Y-59035714D01*
X68380952Y-58988095D01*
X68952380Y-58416666D01*
X68952380Y-59035714D01*
X88857142Y-57958333D02*
X88904761Y-57910714D01*
X88952380Y-57767857D01*
X88952380Y-57672619D01*
X88904761Y-57529761D01*
X88809523Y-57434523D01*
X88714285Y-57386904D01*
X88523809Y-57339285D01*
X88380952Y-57339285D01*
X88190476Y-57386904D01*
X88095238Y-57434523D01*
X88000000Y-57529761D01*
X87952380Y-57672619D01*
X87952380Y-57767857D01*
X88000000Y-57910714D01*
X88047619Y-57958333D01*
X87952380Y-58291666D02*
X87952380Y-58910714D01*
X88333333Y-58577380D01*
X88333333Y-58720238D01*
X88380952Y-58815476D01*
X88428571Y-58863095D01*
X88523809Y-58910714D01*
X88761904Y-58910714D01*
X88857142Y-58863095D01*
X88904761Y-58815476D01*
X88952380Y-58720238D01*
X88952380Y-58434523D01*
X88904761Y-58339285D01*
X88857142Y-58291666D01*
X108857142Y-57958333D02*
X108904761Y-57910714D01*
X108952380Y-57767857D01*
X108952380Y-57672619D01*
X108904761Y-57529761D01*
X108809523Y-57434523D01*
X108714285Y-57386904D01*
X108523809Y-57339285D01*
X108380952Y-57339285D01*
X108190476Y-57386904D01*
X108095238Y-57434523D01*
X108000000Y-57529761D01*
X107952380Y-57672619D01*
X107952380Y-57767857D01*
X108000000Y-57910714D01*
X108047619Y-57958333D01*
X108285714Y-58815476D02*
X108952380Y-58815476D01*
X107904761Y-58577380D02*
X108619047Y-58339285D01*
X108619047Y-58958333D01*
X128857142Y-57958333D02*
X128904761Y-57910714D01*
X128952380Y-57767857D01*
X128952380Y-57672619D01*
X128904761Y-57529761D01*
X128809523Y-57434523D01*
X128714285Y-57386904D01*
X128523809Y-57339285D01*
X128380952Y-57339285D01*
X128190476Y-57386904D01*
X128095238Y-57434523D01*
X128000000Y-57529761D01*
X127952380Y-57672619D01*
X127952380Y-57767857D01*
X128000000Y-57910714D01*
X128047619Y-57958333D01*
X127952380Y-58863095D02*
X127952380Y-58386904D01*
X128428571Y-58339285D01*
X128380952Y-58386904D01*
X128333333Y-58482142D01*
X128333333Y-58720238D01*
X128380952Y-58815476D01*
X128428571Y-58863095D01*
X128523809Y-58910714D01*
X128761904Y-58910714D01*
X128857142Y-58863095D01*
X128904761Y-58815476D01*
X128952380Y-58720238D01*
X128952380Y-58482142D01*
X128904761Y-58386904D01*
X128857142Y-58339285D01*
X48857142Y-77958333D02*
X48904761Y-77910714D01*
X48952380Y-77767857D01*
X48952380Y-77672619D01*
X48904761Y-77529761D01*
X48809523Y-77434523D01*
X48714285Y-77386904D01*
X48523809Y-77339285D01*
X48380952Y-77339285D01*
X48190476Y-77386904D01*
X48095238Y-77434523D01*
X48000000Y-77529761D01*
X47952380Y-77672619D01*
X47952380Y-77767857D01*
X48000000Y-77910714D01*
X48047619Y-77958333D01*
X47952380Y-78815476D02*
X47952380Y-78625000D01*
X48000000Y-78529761D01*
X48047619Y-78482142D01*
X48190476Y-78386904D01*
X48380952Y-78339285D01*
X48761904Y-78339285D01*
X48857142Y-78386904D01*
X48904761Y-78434523D01*
X48952380Y-78529761D01*
X48952380Y-78720238D01*
X48904761Y-78815476D01*
X48857142Y-78863095D01*
X48761904Y-78910714D01*
X48523809Y-78910714D01*
X48428571Y-78863095D01*
X48380952Y-78815476D01*
X48333333Y-78720238D01*
X48333333Y-78529761D01*
X48380952Y-78434523D01*
X48428571Y-78386904D01*
X48523809Y-78339285D01*
X68857142Y-77958333D02*
X68904761Y-77910714D01*
X68952380Y-77767857D01*
X68952380Y-77672619D01*
X68904761Y-77529761D01*
X68809523Y-77434523D01*
X68714285Y-77386904D01*
X68523809Y-77339285D01*
X68380952Y-77339285D01*
X68190476Y-77386904D01*
X68095238Y-77434523D01*
X68000000Y-77529761D01*
X67952380Y-77672619D01*
X67952380Y-77767857D01*
X68000000Y-77910714D01*
X68047619Y-77958333D01*
X67952380Y-78291666D02*
X67952380Y-78958333D01*
X68952380Y-78529761D01*
X88857142Y-77958333D02*
X88904761Y-77910714D01*
X88952380Y-77767857D01*
X88952380Y-77672619D01*
X88904761Y-77529761D01*
X88809523Y-77434523D01*
X88714285Y-77386904D01*
X88523809Y-77339285D01*
X88380952Y-77339285D01*
X88190476Y-77386904D01*
X88095238Y-77434523D01*
X88000000Y-77529761D01*
X87952380Y-77672619D01*
X87952380Y-77767857D01*
X88000000Y-77910714D01*
X88047619Y-77958333D01*
X88380952Y-78529761D02*
X88333333Y-78434523D01*
X88285714Y-78386904D01*
X88190476Y-78339285D01*
X88142857Y-78339285D01*
X88047619Y-78386904D01*
X88000000Y-78434523D01*
X87952380Y-78529761D01*
X87952380Y-78720238D01*
X88000000Y-78815476D01*
X88047619Y-78863095D01*
X88142857Y-78910714D01*
X88190476Y-78910714D01*
X88285714Y-78863095D01*
X88333333Y-78815476D01*
X88380952Y-78720238D01*
X88380952Y-78529761D01*
X88428571Y-78434523D01*
X88476190Y-78386904D01*
X88571428Y-78339285D01*
X88761904Y-78339285D01*
X88857142Y-78386904D01*
X88904761Y-78434523D01*
X88952380Y-78529761D01*
X88952380Y-78720238D01*
X88904761Y-78815476D01*
X88857142Y-78863095D01*
X88761904Y-78910714D01*
X88571428Y-78910714D01*
X88476190Y-78863095D01*
X88428571Y-78815476D01*
X88380952Y-78720238D01*
X108857142Y-77958333D02*
X108904761Y-77910714D01*
X108952380Y-77767857D01*
X108952380Y-77672619D01*
X108904761Y-77529761D01*
X108809523Y-77434523D01*
X108714285Y-77386904D01*
X108523809Y-77339285D01*
X108380952Y-77339285D01*
X108190476Y-77386904D01*
X108095238Y-77434523D01*
X108000000Y-77529761D01*
X107952380Y-77672619D01*
X107952380Y-77767857D01*
X108000000Y-77910714D01*
X108047619Y-77958333D01*
X108952380Y-78434523D02*
X108952380Y-78625000D01*
X108904761Y-78720238D01*
X108857142Y-78767857D01*
X108714285Y-78863095D01*
X108523809Y-78910714D01*
X108142857Y-78910714D01*
X108047619Y-78863095D01*
X108000000Y-78815476D01*
X107952380Y-78720238D01*
X107952380Y-78529761D01*
X108000000Y-78434523D01*
X108047619Y-78386904D01*
X108142857Y-78339285D01*
X108380952Y-78339285D01*
X108476190Y-78386904D01*
X108523809Y-78434523D01*
X108571428Y-78529761D01*
X108571428Y-78720238D01*
X108523809Y-78815476D01*
X108476190Y-78863095D01*
X108380952Y-78910714D01*
X128857142Y-77482142D02*
X128904761Y-77434523D01*
X128952380Y-77291666D01*
X128952380Y-77196428D01*
X128904761Y-77053571D01*
X128809523Y-76958333D01*
X128714285Y-76910714D01*
X128523809Y-76863095D01*
X128380952Y-76863095D01*
X128190476Y-76910714D01*
X128095238Y-76958333D01*
X128000000Y-77053571D01*
X127952380Y-77196428D01*
X127952380Y-77291666D01*
X128000000Y-77434523D01*
X128047619Y-77482142D01*
X128952380Y-78434523D02*
X128952380Y-77863095D01*
X128952380Y-78148809D02*
X127952380Y-78148809D01*
X128095238Y-78053571D01*
X128190476Y-77958333D01*
X128238095Y-77863095D01*
X127952380Y-79053571D02*
X127952380Y-79148809D01*
X128000000Y-79244047D01*
X128047619Y-79291666D01*
X128142857Y-79339285D01*
X128333333Y-79386904D01*
X128571428Y-79386904D01*
X128761904Y-79339285D01*
X128857142Y-79291666D01*
X128904761Y-79244047D01*
X128952380Y-79148809D01*
X128952380Y-79053571D01*
X128904761Y-78958333D01*
X128857142Y-78910714D01*
X128761904Y-78863095D01*
X128571428Y-78815476D01*
X128333333Y-78815476D01*
X128142857Y-78863095D01*
X128047619Y-78910714D01*
X128000000Y-78958333D01*
X127952380Y-79053571D01*
X148857142Y-77482142D02*
X148904761Y-77434523D01*
X148952380Y-77291666D01*
X148952380Y-77196428D01*
X148904761Y-77053571D01*
X148809523Y-76958333D01*
X148714285Y-76910714D01*
X148523809Y-76863095D01*
X148380952Y-76863095D01*
X148190476Y-76910714D01*
X148095238Y-76958333D01*
X148000000Y-77053571D01*
X147952380Y-77196428D01*
X147952380Y-77291666D01*
X148000000Y-77434523D01*
X148047619Y-77482142D01*
X148952380Y-78434523D02*
X148952380Y-77863095D01*
X148952380Y-78148809D02*
X147952380Y-78148809D01*
X148095238Y-78053571D01*
X148190476Y-77958333D01*
X148238095Y-77863095D01*
X148047619Y-78815476D02*
X148000000Y-78863095D01*
X147952380Y-78958333D01*
X147952380Y-79196428D01*
X148000000Y-79291666D01*
X148047619Y-79339285D01*
X148142857Y-79386904D01*
X148238095Y-79386904D01*
X148380952Y-79339285D01*
X148952380Y-78767857D01*
X148952380Y-79386904D01*
X148857142Y-57482142D02*
X148904761Y-57434523D01*
X148952380Y-57291666D01*
X148952380Y-57196428D01*
X148904761Y-57053571D01*
X148809523Y-56958333D01*
X148714285Y-56910714D01*
X148523809Y-56863095D01*
X148380952Y-56863095D01*
X148190476Y-56910714D01*
X148095238Y-56958333D01*
X148000000Y-57053571D01*
X147952380Y-57196428D01*
X147952380Y-57291666D01*
X148000000Y-57434523D01*
X148047619Y-57482142D01*
X148952380Y-58434523D02*
X148952380Y-57863095D01*
X148952380Y-58148809D02*
X147952380Y-58148809D01*
X148095238Y-58053571D01*
X148190476Y-57958333D01*
X148238095Y-57863095D01*
X148952380Y-59386904D02*
X148952380Y-58815476D01*
X148952380Y-59101190D02*
X147952380Y-59101190D01*
X148095238Y-59005952D01*
X148190476Y-58910714D01*
X148238095Y-58815476D01*
X48952380Y-61708333D02*
X48476190Y-61375000D01*
X48952380Y-61136904D02*
X47952380Y-61136904D01*
X47952380Y-61517857D01*
X48000000Y-61613095D01*
X48047619Y-61660714D01*
X48142857Y-61708333D01*
X48285714Y-61708333D01*
X48380952Y-61660714D01*
X48428571Y-61613095D01*
X48476190Y-61517857D01*
X48476190Y-61136904D01*
X48952380Y-62660714D02*
X48952380Y-62089285D01*
X48952380Y-62375000D02*
X47952380Y-62375000D01*
X48095238Y-62279761D01*
X48190476Y-62184523D01*
X48238095Y-62089285D01*
X68952380Y-61708333D02*
X68476190Y-61375000D01*
X68952380Y-61136904D02*
X67952380Y-61136904D01*
X67952380Y-61517857D01*
X68000000Y-61613095D01*
X68047619Y-61660714D01*
X68142857Y-61708333D01*
X68285714Y-61708333D01*
X68380952Y-61660714D01*
X68428571Y-61613095D01*
X68476190Y-61517857D01*
X68476190Y-61136904D01*
X68047619Y-62089285D02*
X68000000Y-62136904D01*
X67952380Y-62232142D01*
X67952380Y-62470238D01*
X68000000Y-62565476D01*
X68047619Y-62613095D01*
X68142857Y-62660714D01*
X68238095Y-62660714D01*
X68380952Y-62613095D01*
X68952380Y-62041666D01*
X68952380Y-62660714D01*
X88702380Y-61708333D02*
X88226190Y-61375000D01*
X88702380Y-61136904D02*
X87702380Y-61136904D01*
X87702380Y-61517857D01*
X87750000Y-61613095D01*
X87797619Y-61660714D01*
X87892857Y-61708333D01*
X88035714Y-61708333D01*
X88130952Y-61660714D01*
X88178571Y-61613095D01*
X88226190Y-61517857D01*
X88226190Y-61136904D01*
X87702380Y-62041666D02*
X87702380Y-62660714D01*
X88083333Y-62327380D01*
X88083333Y-62470238D01*
X88130952Y-62565476D01*
X88178571Y-62613095D01*
X88273809Y-62660714D01*
X88511904Y-62660714D01*
X88607142Y-62613095D01*
X88654761Y-62565476D01*
X88702380Y-62470238D01*
X88702380Y-62184523D01*
X88654761Y-62089285D01*
X88607142Y-62041666D01*
X108952380Y-61708333D02*
X108476190Y-61375000D01*
X108952380Y-61136904D02*
X107952380Y-61136904D01*
X107952380Y-61517857D01*
X108000000Y-61613095D01*
X108047619Y-61660714D01*
X108142857Y-61708333D01*
X108285714Y-61708333D01*
X108380952Y-61660714D01*
X108428571Y-61613095D01*
X108476190Y-61517857D01*
X108476190Y-61136904D01*
X108285714Y-62565476D02*
X108952380Y-62565476D01*
X107904761Y-62327380D02*
X108619047Y-62089285D01*
X108619047Y-62708333D01*
X128952380Y-61708333D02*
X128476190Y-61375000D01*
X128952380Y-61136904D02*
X127952380Y-61136904D01*
X127952380Y-61517857D01*
X128000000Y-61613095D01*
X128047619Y-61660714D01*
X128142857Y-61708333D01*
X128285714Y-61708333D01*
X128380952Y-61660714D01*
X128428571Y-61613095D01*
X128476190Y-61517857D01*
X128476190Y-61136904D01*
X127952380Y-62613095D02*
X127952380Y-62136904D01*
X128428571Y-62089285D01*
X128380952Y-62136904D01*
X128333333Y-62232142D01*
X128333333Y-62470238D01*
X128380952Y-62565476D01*
X128428571Y-62613095D01*
X128523809Y-62660714D01*
X128761904Y-62660714D01*
X128857142Y-62613095D01*
X128904761Y-62565476D01*
X128952380Y-62470238D01*
X128952380Y-62232142D01*
X128904761Y-62136904D01*
X128857142Y-62089285D01*
X48952380Y-81708333D02*
X48476190Y-81375000D01*
X48952380Y-81136904D02*
X47952380Y-81136904D01*
X47952380Y-81517857D01*
X48000000Y-81613095D01*
X48047619Y-81660714D01*
X48142857Y-81708333D01*
X48285714Y-81708333D01*
X48380952Y-81660714D01*
X48428571Y-81613095D01*
X48476190Y-81517857D01*
X48476190Y-81136904D01*
X47952380Y-82565476D02*
X47952380Y-82375000D01*
X48000000Y-82279761D01*
X48047619Y-82232142D01*
X48190476Y-82136904D01*
X48380952Y-82089285D01*
X48761904Y-82089285D01*
X48857142Y-82136904D01*
X48904761Y-82184523D01*
X48952380Y-82279761D01*
X48952380Y-82470238D01*
X48904761Y-82565476D01*
X48857142Y-82613095D01*
X48761904Y-82660714D01*
X48523809Y-82660714D01*
X48428571Y-82613095D01*
X48380952Y-82565476D01*
X48333333Y-82470238D01*
X48333333Y-82279761D01*
X48380952Y-82184523D01*
X48428571Y-82136904D01*
X48523809Y-82089285D01*
X68952380Y-81708333D02*
X68476190Y-81375000D01*
X68952380Y-81136904D02*
X67952380Y-81136904D01*
X67952380Y-81517857D01*
X68000000Y-81613095D01*
X68047619Y-81660714D01*
X68142857Y-81708333D01*
X68285714Y-81708333D01*
X68380952Y-81660714D01*
X68428571Y-81613095D01*
X68476190Y-81517857D01*
X68476190Y-81136904D01*
X67952380Y-82041666D02*
X67952380Y-82708333D01*
X68952380Y-82279761D01*
X88952380Y-81708333D02*
X88476190Y-81375000D01*
X88952380Y-81136904D02*
X87952380Y-81136904D01*
X87952380Y-81517857D01*
X88000000Y-81613095D01*
X88047619Y-81660714D01*
X88142857Y-81708333D01*
X88285714Y-81708333D01*
X88380952Y-81660714D01*
X88428571Y-81613095D01*
X88476190Y-81517857D01*
X88476190Y-81136904D01*
X88380952Y-82279761D02*
X88333333Y-82184523D01*
X88285714Y-82136904D01*
X88190476Y-82089285D01*
X88142857Y-82089285D01*
X88047619Y-82136904D01*
X88000000Y-82184523D01*
X87952380Y-82279761D01*
X87952380Y-82470238D01*
X88000000Y-82565476D01*
X88047619Y-82613095D01*
X88142857Y-82660714D01*
X88190476Y-82660714D01*
X88285714Y-82613095D01*
X88333333Y-82565476D01*
X88380952Y-82470238D01*
X88380952Y-82279761D01*
X88428571Y-82184523D01*
X88476190Y-82136904D01*
X88571428Y-82089285D01*
X88761904Y-82089285D01*
X88857142Y-82136904D01*
X88904761Y-82184523D01*
X88952380Y-82279761D01*
X88952380Y-82470238D01*
X88904761Y-82565476D01*
X88857142Y-82613095D01*
X88761904Y-82660714D01*
X88571428Y-82660714D01*
X88476190Y-82613095D01*
X88428571Y-82565476D01*
X88380952Y-82470238D01*
X108952380Y-81708333D02*
X108476190Y-81375000D01*
X108952380Y-81136904D02*
X107952380Y-81136904D01*
X107952380Y-81517857D01*
X108000000Y-81613095D01*
X108047619Y-81660714D01*
X108142857Y-81708333D01*
X108285714Y-81708333D01*
X108380952Y-81660714D01*
X108428571Y-81613095D01*
X108476190Y-81517857D01*
X108476190Y-81136904D01*
X108952380Y-82184523D02*
X108952380Y-82375000D01*
X108904761Y-82470238D01*
X108857142Y-82517857D01*
X108714285Y-82613095D01*
X108523809Y-82660714D01*
X108142857Y-82660714D01*
X108047619Y-82613095D01*
X108000000Y-82565476D01*
X107952380Y-82470238D01*
X107952380Y-82279761D01*
X108000000Y-82184523D01*
X108047619Y-82136904D01*
X108142857Y-82089285D01*
X108380952Y-82089285D01*
X108476190Y-82136904D01*
X108523809Y-82184523D01*
X108571428Y-82279761D01*
X108571428Y-82470238D01*
X108523809Y-82565476D01*
X108476190Y-82613095D01*
X108380952Y-82660714D01*
X128952380Y-81232142D02*
X128476190Y-80898809D01*
X128952380Y-80660714D02*
X127952380Y-80660714D01*
X127952380Y-81041666D01*
X128000000Y-81136904D01*
X128047619Y-81184523D01*
X128142857Y-81232142D01*
X128285714Y-81232142D01*
X128380952Y-81184523D01*
X128428571Y-81136904D01*
X128476190Y-81041666D01*
X128476190Y-80660714D01*
X128952380Y-82184523D02*
X128952380Y-81613095D01*
X128952380Y-81898809D02*
X127952380Y-81898809D01*
X128095238Y-81803571D01*
X128190476Y-81708333D01*
X128238095Y-81613095D01*
X127952380Y-82803571D02*
X127952380Y-82898809D01*
X128000000Y-82994047D01*
X128047619Y-83041666D01*
X128142857Y-83089285D01*
X128333333Y-83136904D01*
X128571428Y-83136904D01*
X128761904Y-83089285D01*
X128857142Y-83041666D01*
X128904761Y-82994047D01*
X128952380Y-82898809D01*
X128952380Y-82803571D01*
X128904761Y-82708333D01*
X128857142Y-82660714D01*
X128761904Y-82613095D01*
X128571428Y-82565476D01*
X128333333Y-82565476D01*
X128142857Y-82613095D01*
X128047619Y-82660714D01*
X128000000Y-82708333D01*
X127952380Y-82803571D01*
X39702380Y-69357142D02*
X39226190Y-69023809D01*
X39702380Y-68785714D02*
X38702380Y-68785714D01*
X38702380Y-69166666D01*
X38750000Y-69261904D01*
X38797619Y-69309523D01*
X38892857Y-69357142D01*
X39035714Y-69357142D01*
X39130952Y-69309523D01*
X39178571Y-69261904D01*
X39226190Y-69166666D01*
X39226190Y-68785714D01*
X39702380Y-70309523D02*
X39702380Y-69738095D01*
X39702380Y-70023809D02*
X38702380Y-70023809D01*
X38845238Y-69928571D01*
X38940476Y-69833333D01*
X38988095Y-69738095D01*
X38797619Y-70690476D02*
X38750000Y-70738095D01*
X38702380Y-70833333D01*
X38702380Y-71071428D01*
X38750000Y-71166666D01*
X38797619Y-71214285D01*
X38892857Y-71261904D01*
X38988095Y-71261904D01*
X39130952Y-71214285D01*
X39702380Y-70642857D01*
X39702380Y-71261904D01*
X51392857Y-71882380D02*
X51726190Y-71406190D01*
X51964285Y-71882380D02*
X51964285Y-70882380D01*
X51583333Y-70882380D01*
X51488095Y-70930000D01*
X51440476Y-70977619D01*
X51392857Y-71072857D01*
X51392857Y-71215714D01*
X51440476Y-71310952D01*
X51488095Y-71358571D01*
X51583333Y-71406190D01*
X51964285Y-71406190D01*
X50440476Y-71882380D02*
X51011904Y-71882380D01*
X50726190Y-71882380D02*
X50726190Y-70882380D01*
X50821428Y-71025238D01*
X50916666Y-71120476D01*
X51011904Y-71168095D01*
X49488095Y-71882380D02*
X50059523Y-71882380D01*
X49773809Y-71882380D02*
X49773809Y-70882380D01*
X49869047Y-71025238D01*
X49964285Y-71120476D01*
X50059523Y-71168095D01*
X38892857Y-78952380D02*
X39226190Y-78476190D01*
X39464285Y-78952380D02*
X39464285Y-77952380D01*
X39083333Y-77952380D01*
X38988095Y-78000000D01*
X38940476Y-78047619D01*
X38892857Y-78142857D01*
X38892857Y-78285714D01*
X38940476Y-78380952D01*
X38988095Y-78428571D01*
X39083333Y-78476190D01*
X39464285Y-78476190D01*
X37940476Y-78952380D02*
X38511904Y-78952380D01*
X38226190Y-78952380D02*
X38226190Y-77952380D01*
X38321428Y-78095238D01*
X38416666Y-78190476D01*
X38511904Y-78238095D01*
X37607142Y-77952380D02*
X36988095Y-77952380D01*
X37321428Y-78333333D01*
X37178571Y-78333333D01*
X37083333Y-78380952D01*
X37035714Y-78428571D01*
X36988095Y-78523809D01*
X36988095Y-78761904D01*
X37035714Y-78857142D01*
X37083333Y-78904761D01*
X37178571Y-78952380D01*
X37464285Y-78952380D01*
X37559523Y-78904761D01*
X37607142Y-78857142D01*
X148952380Y-61232142D02*
X148476190Y-60898809D01*
X148952380Y-60660714D02*
X147952380Y-60660714D01*
X147952380Y-61041666D01*
X148000000Y-61136904D01*
X148047619Y-61184523D01*
X148142857Y-61232142D01*
X148285714Y-61232142D01*
X148380952Y-61184523D01*
X148428571Y-61136904D01*
X148476190Y-61041666D01*
X148476190Y-60660714D01*
X148952380Y-62184523D02*
X148952380Y-61613095D01*
X148952380Y-61898809D02*
X147952380Y-61898809D01*
X148095238Y-61803571D01*
X148190476Y-61708333D01*
X148238095Y-61613095D01*
X148285714Y-63041666D02*
X148952380Y-63041666D01*
X147904761Y-62803571D02*
X148619047Y-62565476D01*
X148619047Y-63184523D01*
X148952380Y-81232142D02*
X148476190Y-80898809D01*
X148952380Y-80660714D02*
X147952380Y-80660714D01*
X147952380Y-81041666D01*
X148000000Y-81136904D01*
X148047619Y-81184523D01*
X148142857Y-81232142D01*
X148285714Y-81232142D01*
X148380952Y-81184523D01*
X148428571Y-81136904D01*
X148476190Y-81041666D01*
X148476190Y-80660714D01*
X148952380Y-82184523D02*
X148952380Y-81613095D01*
X148952380Y-81898809D02*
X147952380Y-81898809D01*
X148095238Y-81803571D01*
X148190476Y-81708333D01*
X148238095Y-81613095D01*
X147952380Y-83089285D02*
X147952380Y-82613095D01*
X148428571Y-82565476D01*
X148380952Y-82613095D01*
X148333333Y-82708333D01*
X148333333Y-82946428D01*
X148380952Y-83041666D01*
X148428571Y-83089285D01*
X148523809Y-83136904D01*
X148761904Y-83136904D01*
X148857142Y-83089285D01*
X148904761Y-83041666D01*
X148952380Y-82946428D01*
X148952380Y-82708333D01*
X148904761Y-82613095D01*
X148857142Y-82565476D01*
M02*
