G04 #@! TF.GenerationSoftware,KiCad,Pcbnew,(5.1.4)-1*
G04 #@! TF.CreationDate,2019-11-29T19:55:24+00:00*
G04 #@! TF.ProjectId,MAX7219_Clock,4d415837-3231-4395-9f43-6c6f636b2e6b,rev?*
G04 #@! TF.SameCoordinates,Original*
G04 #@! TF.FileFunction,Legend,Top*
G04 #@! TF.FilePolarity,Positive*
%FSLAX46Y46*%
G04 Gerber Fmt 4.6, Leading zero omitted, Abs format (unit mm)*
G04 Created by KiCad (PCBNEW (5.1.4)-1) date 2019-11-29 19:55:24*
%MOMM*%
%LPD*%
G04 APERTURE LIST*
%ADD10C,0.150000*%
%ADD11C,0.010000*%
%ADD12C,0.100000*%
%ADD13C,0.120000*%
G04 APERTURE END LIST*
D10*
X31607142Y-75166666D02*
X31654761Y-75214285D01*
X31702380Y-75357142D01*
X31702380Y-75452380D01*
X31654761Y-75595238D01*
X31559523Y-75690476D01*
X31464285Y-75738095D01*
X31273809Y-75785714D01*
X31130952Y-75785714D01*
X30940476Y-75738095D01*
X30845238Y-75690476D01*
X30750000Y-75595238D01*
X30702380Y-75452380D01*
X30702380Y-75357142D01*
X30750000Y-75214285D01*
X30797619Y-75166666D01*
X31654761Y-74785714D02*
X31702380Y-74642857D01*
X31702380Y-74404761D01*
X31654761Y-74309523D01*
X31607142Y-74261904D01*
X31511904Y-74214285D01*
X31416666Y-74214285D01*
X31321428Y-74261904D01*
X31273809Y-74309523D01*
X31226190Y-74404761D01*
X31178571Y-74595238D01*
X31130952Y-74690476D01*
X31083333Y-74738095D01*
X30988095Y-74785714D01*
X30892857Y-74785714D01*
X30797619Y-74738095D01*
X30750000Y-74690476D01*
X30702380Y-74595238D01*
X30702380Y-74357142D01*
X30750000Y-74214285D01*
X31607142Y-72595238D02*
X31654761Y-72642857D01*
X31702380Y-72785714D01*
X31702380Y-72880952D01*
X31654761Y-73023809D01*
X31559523Y-73119047D01*
X31464285Y-73166666D01*
X31273809Y-73214285D01*
X31130952Y-73214285D01*
X30940476Y-73166666D01*
X30845238Y-73119047D01*
X30750000Y-73023809D01*
X30702380Y-72880952D01*
X30702380Y-72785714D01*
X30750000Y-72642857D01*
X30797619Y-72595238D01*
X31702380Y-71690476D02*
X31702380Y-72166666D01*
X30702380Y-72166666D01*
X31702380Y-70261904D02*
X30702380Y-70261904D01*
X30702380Y-70023809D01*
X30750000Y-69880952D01*
X30845238Y-69785714D01*
X30940476Y-69738095D01*
X31130952Y-69690476D01*
X31273809Y-69690476D01*
X31464285Y-69738095D01*
X31559523Y-69785714D01*
X31654761Y-69880952D01*
X31702380Y-70023809D01*
X31702380Y-70261904D01*
X30750000Y-67238095D02*
X30702380Y-67333333D01*
X30702380Y-67476190D01*
X30750000Y-67619047D01*
X30845238Y-67714285D01*
X30940476Y-67761904D01*
X31130952Y-67809523D01*
X31273809Y-67809523D01*
X31464285Y-67761904D01*
X31559523Y-67714285D01*
X31654761Y-67619047D01*
X31702380Y-67476190D01*
X31702380Y-67380952D01*
X31654761Y-67238095D01*
X31607142Y-67190476D01*
X31273809Y-67190476D01*
X31273809Y-67380952D01*
X30702380Y-64940476D02*
X30702380Y-65416666D01*
X31178571Y-65464285D01*
X31130952Y-65416666D01*
X31083333Y-65321428D01*
X31083333Y-65083333D01*
X31130952Y-64988095D01*
X31178571Y-64940476D01*
X31273809Y-64892857D01*
X31511904Y-64892857D01*
X31607142Y-64940476D01*
X31654761Y-64988095D01*
X31702380Y-65083333D01*
X31702380Y-65321428D01*
X31654761Y-65416666D01*
X31607142Y-65464285D01*
X30702380Y-64607142D02*
X31702380Y-64273809D01*
X30702380Y-63940476D01*
D11*
G36*
X164556510Y-61784180D02*
G01*
X164712890Y-61784272D01*
X164861031Y-61784361D01*
X165001161Y-61784450D01*
X165133508Y-61784538D01*
X165258300Y-61784628D01*
X165375764Y-61784719D01*
X165486129Y-61784813D01*
X165589622Y-61784910D01*
X165686471Y-61785013D01*
X165776905Y-61785121D01*
X165861150Y-61785235D01*
X165939435Y-61785357D01*
X166011987Y-61785488D01*
X166079035Y-61785628D01*
X166140806Y-61785778D01*
X166197528Y-61785940D01*
X166249429Y-61786115D01*
X166296737Y-61786302D01*
X166339680Y-61786504D01*
X166378486Y-61786720D01*
X166413381Y-61786953D01*
X166444595Y-61787204D01*
X166472355Y-61787472D01*
X166496889Y-61787759D01*
X166518425Y-61788066D01*
X166537191Y-61788394D01*
X166553414Y-61788743D01*
X166567322Y-61789116D01*
X166579144Y-61789512D01*
X166589107Y-61789933D01*
X166597438Y-61790380D01*
X166604367Y-61790853D01*
X166610120Y-61791354D01*
X166614925Y-61791884D01*
X166619011Y-61792443D01*
X166621366Y-61792818D01*
X166715150Y-61812462D01*
X166804178Y-61839092D01*
X166888545Y-61872759D01*
X166968348Y-61913512D01*
X167043686Y-61961402D01*
X167114653Y-62016477D01*
X167181348Y-62078788D01*
X167184601Y-62082124D01*
X167244948Y-62149848D01*
X167297887Y-62221175D01*
X167343572Y-62296415D01*
X167382159Y-62375880D01*
X167413801Y-62459881D01*
X167438654Y-62548730D01*
X167454092Y-62625533D01*
X167454590Y-62628765D01*
X167455065Y-62632547D01*
X167455518Y-62637073D01*
X167455951Y-62642536D01*
X167456363Y-62649132D01*
X167456756Y-62657052D01*
X167457129Y-62666492D01*
X167457483Y-62677646D01*
X167457820Y-62690706D01*
X167458139Y-62705868D01*
X167458442Y-62723324D01*
X167458728Y-62743269D01*
X167458998Y-62765897D01*
X167459254Y-62791402D01*
X167459495Y-62819977D01*
X167459722Y-62851816D01*
X167459936Y-62887113D01*
X167460138Y-62926062D01*
X167460327Y-62968858D01*
X167460505Y-63015693D01*
X167460672Y-63066762D01*
X167460829Y-63122258D01*
X167460976Y-63182376D01*
X167461114Y-63247310D01*
X167461244Y-63317252D01*
X167461366Y-63392398D01*
X167461480Y-63472941D01*
X167461588Y-63559075D01*
X167461690Y-63650993D01*
X167461786Y-63748890D01*
X167461878Y-63852960D01*
X167461965Y-63963395D01*
X167462048Y-64080392D01*
X167462129Y-64204142D01*
X167462206Y-64334841D01*
X167462282Y-64472681D01*
X167462357Y-64617857D01*
X167462431Y-64770563D01*
X167462505Y-64930993D01*
X167462579Y-65099340D01*
X167462655Y-65275798D01*
X167462719Y-65429058D01*
X167463863Y-68188133D01*
X163522566Y-68188133D01*
X163522566Y-67201775D01*
X165428146Y-67200712D01*
X167333727Y-67199649D01*
X167299745Y-67148849D01*
X167245517Y-67075266D01*
X167185382Y-67007624D01*
X167119719Y-66946190D01*
X167048906Y-66891233D01*
X166973320Y-66843019D01*
X166893340Y-66801817D01*
X166809343Y-66767894D01*
X166725631Y-66742514D01*
X166716052Y-66739986D01*
X166707464Y-66737607D01*
X166699603Y-66735372D01*
X166692205Y-66733277D01*
X166685007Y-66731317D01*
X166677747Y-66729486D01*
X166670159Y-66727781D01*
X166661982Y-66726196D01*
X166652951Y-66724726D01*
X166642804Y-66723366D01*
X166631277Y-66722112D01*
X166618106Y-66720959D01*
X166603028Y-66719902D01*
X166585780Y-66718936D01*
X166566098Y-66718057D01*
X166543719Y-66717258D01*
X166518380Y-66716537D01*
X166489817Y-66715887D01*
X166457767Y-66715304D01*
X166421966Y-66714783D01*
X166382151Y-66714319D01*
X166338059Y-66713908D01*
X166289426Y-66713544D01*
X166235988Y-66713223D01*
X166177484Y-66712940D01*
X166113648Y-66712690D01*
X166044218Y-66712468D01*
X165968931Y-66712269D01*
X165887522Y-66712089D01*
X165799729Y-66711922D01*
X165705288Y-66711764D01*
X165603936Y-66711611D01*
X165495409Y-66711456D01*
X165379444Y-66711296D01*
X165255778Y-66711125D01*
X165124147Y-66710938D01*
X164997883Y-66710752D01*
X164860125Y-66710543D01*
X164730574Y-66710343D01*
X164608971Y-66710150D01*
X164495055Y-66709962D01*
X164388568Y-66709779D01*
X164289250Y-66709597D01*
X164196841Y-66709417D01*
X164111082Y-66709236D01*
X164031713Y-66709052D01*
X163958474Y-66708864D01*
X163891106Y-66708671D01*
X163829350Y-66708470D01*
X163772946Y-66708261D01*
X163721633Y-66708041D01*
X163675154Y-66707809D01*
X163633247Y-66707563D01*
X163595654Y-66707303D01*
X163562116Y-66707025D01*
X163532371Y-66706729D01*
X163522566Y-66706611D01*
X163522566Y-65724333D01*
X166477433Y-65724333D01*
X166477433Y-62769466D01*
X163522566Y-62769466D01*
X163522566Y-65724333D01*
X163522566Y-66706611D01*
X163506161Y-66706413D01*
X163483227Y-66706075D01*
X163463308Y-66705714D01*
X163446145Y-66705328D01*
X163431479Y-66704916D01*
X163419050Y-66704476D01*
X163408598Y-66704006D01*
X163399864Y-66703504D01*
X163392589Y-66702970D01*
X163386512Y-66702402D01*
X163381374Y-66701797D01*
X163376916Y-66701155D01*
X163374399Y-66700741D01*
X163281181Y-66680897D01*
X163192835Y-66654170D01*
X163109182Y-66620471D01*
X163030043Y-66579710D01*
X162955239Y-66531799D01*
X162884590Y-66476648D01*
X162838430Y-66434576D01*
X162784074Y-66378335D01*
X162736610Y-66321154D01*
X162694533Y-66260999D01*
X162656340Y-66195834D01*
X162642778Y-66169821D01*
X162615900Y-66112903D01*
X162593577Y-66056879D01*
X162575021Y-65999353D01*
X162559447Y-65937929D01*
X162547986Y-65880966D01*
X162538387Y-65828049D01*
X162536105Y-61783013D01*
X164556510Y-61784180D01*
X164556510Y-61784180D01*
G37*
X164556510Y-61784180D02*
X164712890Y-61784272D01*
X164861031Y-61784361D01*
X165001161Y-61784450D01*
X165133508Y-61784538D01*
X165258300Y-61784628D01*
X165375764Y-61784719D01*
X165486129Y-61784813D01*
X165589622Y-61784910D01*
X165686471Y-61785013D01*
X165776905Y-61785121D01*
X165861150Y-61785235D01*
X165939435Y-61785357D01*
X166011987Y-61785488D01*
X166079035Y-61785628D01*
X166140806Y-61785778D01*
X166197528Y-61785940D01*
X166249429Y-61786115D01*
X166296737Y-61786302D01*
X166339680Y-61786504D01*
X166378486Y-61786720D01*
X166413381Y-61786953D01*
X166444595Y-61787204D01*
X166472355Y-61787472D01*
X166496889Y-61787759D01*
X166518425Y-61788066D01*
X166537191Y-61788394D01*
X166553414Y-61788743D01*
X166567322Y-61789116D01*
X166579144Y-61789512D01*
X166589107Y-61789933D01*
X166597438Y-61790380D01*
X166604367Y-61790853D01*
X166610120Y-61791354D01*
X166614925Y-61791884D01*
X166619011Y-61792443D01*
X166621366Y-61792818D01*
X166715150Y-61812462D01*
X166804178Y-61839092D01*
X166888545Y-61872759D01*
X166968348Y-61913512D01*
X167043686Y-61961402D01*
X167114653Y-62016477D01*
X167181348Y-62078788D01*
X167184601Y-62082124D01*
X167244948Y-62149848D01*
X167297887Y-62221175D01*
X167343572Y-62296415D01*
X167382159Y-62375880D01*
X167413801Y-62459881D01*
X167438654Y-62548730D01*
X167454092Y-62625533D01*
X167454590Y-62628765D01*
X167455065Y-62632547D01*
X167455518Y-62637073D01*
X167455951Y-62642536D01*
X167456363Y-62649132D01*
X167456756Y-62657052D01*
X167457129Y-62666492D01*
X167457483Y-62677646D01*
X167457820Y-62690706D01*
X167458139Y-62705868D01*
X167458442Y-62723324D01*
X167458728Y-62743269D01*
X167458998Y-62765897D01*
X167459254Y-62791402D01*
X167459495Y-62819977D01*
X167459722Y-62851816D01*
X167459936Y-62887113D01*
X167460138Y-62926062D01*
X167460327Y-62968858D01*
X167460505Y-63015693D01*
X167460672Y-63066762D01*
X167460829Y-63122258D01*
X167460976Y-63182376D01*
X167461114Y-63247310D01*
X167461244Y-63317252D01*
X167461366Y-63392398D01*
X167461480Y-63472941D01*
X167461588Y-63559075D01*
X167461690Y-63650993D01*
X167461786Y-63748890D01*
X167461878Y-63852960D01*
X167461965Y-63963395D01*
X167462048Y-64080392D01*
X167462129Y-64204142D01*
X167462206Y-64334841D01*
X167462282Y-64472681D01*
X167462357Y-64617857D01*
X167462431Y-64770563D01*
X167462505Y-64930993D01*
X167462579Y-65099340D01*
X167462655Y-65275798D01*
X167462719Y-65429058D01*
X167463863Y-68188133D01*
X163522566Y-68188133D01*
X163522566Y-67201775D01*
X165428146Y-67200712D01*
X167333727Y-67199649D01*
X167299745Y-67148849D01*
X167245517Y-67075266D01*
X167185382Y-67007624D01*
X167119719Y-66946190D01*
X167048906Y-66891233D01*
X166973320Y-66843019D01*
X166893340Y-66801817D01*
X166809343Y-66767894D01*
X166725631Y-66742514D01*
X166716052Y-66739986D01*
X166707464Y-66737607D01*
X166699603Y-66735372D01*
X166692205Y-66733277D01*
X166685007Y-66731317D01*
X166677747Y-66729486D01*
X166670159Y-66727781D01*
X166661982Y-66726196D01*
X166652951Y-66724726D01*
X166642804Y-66723366D01*
X166631277Y-66722112D01*
X166618106Y-66720959D01*
X166603028Y-66719902D01*
X166585780Y-66718936D01*
X166566098Y-66718057D01*
X166543719Y-66717258D01*
X166518380Y-66716537D01*
X166489817Y-66715887D01*
X166457767Y-66715304D01*
X166421966Y-66714783D01*
X166382151Y-66714319D01*
X166338059Y-66713908D01*
X166289426Y-66713544D01*
X166235988Y-66713223D01*
X166177484Y-66712940D01*
X166113648Y-66712690D01*
X166044218Y-66712468D01*
X165968931Y-66712269D01*
X165887522Y-66712089D01*
X165799729Y-66711922D01*
X165705288Y-66711764D01*
X165603936Y-66711611D01*
X165495409Y-66711456D01*
X165379444Y-66711296D01*
X165255778Y-66711125D01*
X165124147Y-66710938D01*
X164997883Y-66710752D01*
X164860125Y-66710543D01*
X164730574Y-66710343D01*
X164608971Y-66710150D01*
X164495055Y-66709962D01*
X164388568Y-66709779D01*
X164289250Y-66709597D01*
X164196841Y-66709417D01*
X164111082Y-66709236D01*
X164031713Y-66709052D01*
X163958474Y-66708864D01*
X163891106Y-66708671D01*
X163829350Y-66708470D01*
X163772946Y-66708261D01*
X163721633Y-66708041D01*
X163675154Y-66707809D01*
X163633247Y-66707563D01*
X163595654Y-66707303D01*
X163562116Y-66707025D01*
X163532371Y-66706729D01*
X163522566Y-66706611D01*
X163522566Y-65724333D01*
X166477433Y-65724333D01*
X166477433Y-62769466D01*
X163522566Y-62769466D01*
X163522566Y-65724333D01*
X163522566Y-66706611D01*
X163506161Y-66706413D01*
X163483227Y-66706075D01*
X163463308Y-66705714D01*
X163446145Y-66705328D01*
X163431479Y-66704916D01*
X163419050Y-66704476D01*
X163408598Y-66704006D01*
X163399864Y-66703504D01*
X163392589Y-66702970D01*
X163386512Y-66702402D01*
X163381374Y-66701797D01*
X163376916Y-66701155D01*
X163374399Y-66700741D01*
X163281181Y-66680897D01*
X163192835Y-66654170D01*
X163109182Y-66620471D01*
X163030043Y-66579710D01*
X162955239Y-66531799D01*
X162884590Y-66476648D01*
X162838430Y-66434576D01*
X162784074Y-66378335D01*
X162736610Y-66321154D01*
X162694533Y-66260999D01*
X162656340Y-66195834D01*
X162642778Y-66169821D01*
X162615900Y-66112903D01*
X162593577Y-66056879D01*
X162575021Y-65999353D01*
X162559447Y-65937929D01*
X162547986Y-65880966D01*
X162538387Y-65828049D01*
X162536105Y-61783013D01*
X164556510Y-61784180D01*
G36*
X162905526Y-67202801D02*
G01*
X163274916Y-67203883D01*
X163277068Y-68188077D01*
X162974288Y-68189163D01*
X162671507Y-68190249D01*
X162697451Y-68230466D01*
X162749970Y-68304197D01*
X162808622Y-68372362D01*
X162872921Y-68434638D01*
X162942377Y-68490704D01*
X163016503Y-68540235D01*
X163094810Y-68582910D01*
X163176812Y-68618406D01*
X163262019Y-68646399D01*
X163349944Y-68666569D01*
X163359583Y-68668266D01*
X163370642Y-68670082D01*
X163381914Y-68671748D01*
X163393786Y-68673271D01*
X163406646Y-68674656D01*
X163420881Y-68675911D01*
X163436879Y-68677041D01*
X163455025Y-68678053D01*
X163475709Y-68678952D01*
X163499316Y-68679747D01*
X163526235Y-68680442D01*
X163556853Y-68681044D01*
X163591556Y-68681560D01*
X163630733Y-68681995D01*
X163674771Y-68682357D01*
X163724056Y-68682651D01*
X163778976Y-68682884D01*
X163839919Y-68683062D01*
X163907272Y-68683192D01*
X163981421Y-68683280D01*
X164062755Y-68683332D01*
X164151661Y-68683354D01*
X164248525Y-68683354D01*
X164280333Y-68683350D01*
X164376727Y-68683344D01*
X164465020Y-68683355D01*
X164545577Y-68683386D01*
X164618766Y-68683441D01*
X164684950Y-68683521D01*
X164744497Y-68683631D01*
X164797771Y-68683772D01*
X164845139Y-68683948D01*
X164886966Y-68684160D01*
X164923618Y-68684413D01*
X164955461Y-68684709D01*
X164982860Y-68685050D01*
X165006182Y-68685440D01*
X165025791Y-68685881D01*
X165042054Y-68686377D01*
X165055336Y-68686929D01*
X165066003Y-68687541D01*
X165074421Y-68688215D01*
X165080956Y-68688955D01*
X165084707Y-68689531D01*
X165146245Y-68704510D01*
X165205221Y-68727263D01*
X165260835Y-68757283D01*
X165312284Y-68794062D01*
X165358768Y-68837094D01*
X165399487Y-68885871D01*
X165403499Y-68891451D01*
X165421323Y-68919650D01*
X165439182Y-68953294D01*
X165455720Y-68989475D01*
X165469586Y-69025287D01*
X165477458Y-69050305D01*
X165488950Y-69091949D01*
X165490043Y-70858308D01*
X165491136Y-72624666D01*
X166477433Y-72624666D01*
X166477433Y-68683433D01*
X166704974Y-68682757D01*
X166764013Y-68682596D01*
X166815265Y-68682500D01*
X166859408Y-68682486D01*
X166897122Y-68682571D01*
X166929085Y-68682772D01*
X166955977Y-68683107D01*
X166978477Y-68683592D01*
X166997264Y-68684245D01*
X167013017Y-68685084D01*
X167026415Y-68686124D01*
X167038137Y-68687385D01*
X167048862Y-68688881D01*
X167059269Y-68690632D01*
X167066109Y-68691900D01*
X167126923Y-68707679D01*
X167184764Y-68731066D01*
X167238970Y-68761526D01*
X167288878Y-68798521D01*
X167333827Y-68841514D01*
X167373154Y-68889969D01*
X167406197Y-68943350D01*
X167424972Y-68982738D01*
X167431691Y-69000365D01*
X167439184Y-69022723D01*
X167446308Y-69046296D01*
X167449766Y-69058938D01*
X167461683Y-69104649D01*
X167461683Y-74785783D01*
X167450309Y-74826964D01*
X167426091Y-74899322D01*
X167393740Y-74970881D01*
X167353588Y-75041049D01*
X167305966Y-75109237D01*
X167262196Y-75162549D01*
X167256032Y-75169047D01*
X167246423Y-75178402D01*
X167233175Y-75190783D01*
X167216094Y-75206359D01*
X167194987Y-75225300D01*
X167169658Y-75247776D01*
X167139914Y-75273954D01*
X167105560Y-75304005D01*
X167066402Y-75338098D01*
X167022247Y-75376402D01*
X166972899Y-75419085D01*
X166918165Y-75466319D01*
X166857851Y-75518271D01*
X166791762Y-75575111D01*
X166719704Y-75637008D01*
X166641483Y-75704131D01*
X166600122Y-75739602D01*
X166497936Y-75827219D01*
X166401977Y-75909501D01*
X166312041Y-75986623D01*
X166227927Y-76058759D01*
X166149434Y-76126085D01*
X166076358Y-76188775D01*
X166008497Y-76247004D01*
X165945650Y-76300948D01*
X165887615Y-76350782D01*
X165834189Y-76396679D01*
X165785171Y-76438816D01*
X165740358Y-76477367D01*
X165699548Y-76512508D01*
X165662540Y-76544412D01*
X165629130Y-76573256D01*
X165599118Y-76599214D01*
X165572300Y-76622460D01*
X165548475Y-76643171D01*
X165527441Y-76661521D01*
X165508996Y-76677684D01*
X165492938Y-76691837D01*
X165479064Y-76704153D01*
X165467172Y-76714808D01*
X165457061Y-76723977D01*
X165448528Y-76731835D01*
X165441372Y-76738556D01*
X165435389Y-76744316D01*
X165430379Y-76749289D01*
X165426139Y-76753651D01*
X165422467Y-76757576D01*
X165419161Y-76761240D01*
X165416034Y-76764799D01*
X165392343Y-76793745D01*
X165368332Y-76826192D01*
X165345478Y-76859933D01*
X165325258Y-76892759D01*
X165309150Y-76922460D01*
X165305513Y-76930056D01*
X165292364Y-76961279D01*
X165280078Y-76995596D01*
X165269063Y-77031368D01*
X165259728Y-77066957D01*
X165252481Y-77100722D01*
X165247731Y-77131024D01*
X165245885Y-77156224D01*
X165246301Y-77167799D01*
X165247650Y-77181850D01*
X166355724Y-77182916D01*
X167463800Y-77183982D01*
X167463800Y-78216899D01*
X162536200Y-78216899D01*
X162536200Y-77183982D01*
X163644274Y-77182916D01*
X164752350Y-77181850D01*
X164751091Y-77152216D01*
X164745627Y-77105369D01*
X164733270Y-77054871D01*
X164714363Y-77001466D01*
X164689250Y-76945898D01*
X164658276Y-76888909D01*
X164621783Y-76831243D01*
X164580115Y-76773644D01*
X164569954Y-76760633D01*
X164564664Y-76754730D01*
X164553626Y-76743085D01*
X164537081Y-76725939D01*
X164515269Y-76703536D01*
X164488431Y-76676117D01*
X164456806Y-76643927D01*
X164420636Y-76607206D01*
X164380160Y-76566199D01*
X164335619Y-76521147D01*
X164287254Y-76472293D01*
X164235304Y-76419880D01*
X164180011Y-76364151D01*
X164121614Y-76305348D01*
X164060355Y-76243714D01*
X163996472Y-76179491D01*
X163930208Y-76112922D01*
X163861801Y-76044250D01*
X163791493Y-75973718D01*
X163719524Y-75901568D01*
X163646134Y-75828042D01*
X163636822Y-75818716D01*
X163543679Y-75725411D01*
X163454882Y-75636403D01*
X163370529Y-75551790D01*
X163290716Y-75471671D01*
X163215542Y-75396143D01*
X163145104Y-75325306D01*
X163079499Y-75259257D01*
X163018823Y-75198094D01*
X162963176Y-75141917D01*
X162912653Y-75090824D01*
X162867353Y-75044912D01*
X162827372Y-75004281D01*
X162792808Y-74969027D01*
X162763759Y-74939251D01*
X162740321Y-74915050D01*
X162722592Y-74896523D01*
X162710669Y-74883767D01*
X162704650Y-74876882D01*
X162704586Y-74876800D01*
X162660640Y-74814649D01*
X162622540Y-74750691D01*
X162591011Y-74686276D01*
X162566774Y-74622752D01*
X162564105Y-74614333D01*
X162560034Y-74601239D01*
X162556378Y-74589357D01*
X162553117Y-74578183D01*
X162550227Y-74567216D01*
X162547685Y-74555952D01*
X162545470Y-74543890D01*
X162543559Y-74530528D01*
X162541930Y-74515362D01*
X162540560Y-74497892D01*
X162539427Y-74477613D01*
X162538509Y-74454025D01*
X162537782Y-74426625D01*
X162537225Y-74394910D01*
X162536816Y-74358379D01*
X162536531Y-74316528D01*
X162536349Y-74268856D01*
X162536248Y-74214860D01*
X162536203Y-74154038D01*
X162536196Y-74085888D01*
X162536200Y-74009907D01*
X162536200Y-73486155D01*
X163767806Y-74717756D01*
X163875518Y-74825456D01*
X163977383Y-74927287D01*
X164073532Y-75023378D01*
X164164092Y-75113856D01*
X164249195Y-75198850D01*
X164328970Y-75278488D01*
X164403545Y-75352900D01*
X164473051Y-75422213D01*
X164537616Y-75486557D01*
X164597372Y-75546058D01*
X164652446Y-75600846D01*
X164702968Y-75651050D01*
X164749069Y-75696798D01*
X164790876Y-75738217D01*
X164828521Y-75775437D01*
X164862132Y-75808587D01*
X164891839Y-75837794D01*
X164917771Y-75863187D01*
X164940058Y-75884894D01*
X164958830Y-75903044D01*
X164974215Y-75917766D01*
X164986343Y-75929188D01*
X164995345Y-75937437D01*
X165001348Y-75942644D01*
X165004483Y-75944936D01*
X165004998Y-75945047D01*
X165009559Y-75941340D01*
X165020318Y-75932488D01*
X165036990Y-75918727D01*
X165059288Y-75900294D01*
X165086925Y-75877429D01*
X165119616Y-75850367D01*
X165157075Y-75819346D01*
X165199015Y-75784603D01*
X165245150Y-75746377D01*
X165295195Y-75704903D01*
X165348862Y-75660421D01*
X165405866Y-75613167D01*
X165465921Y-75563378D01*
X165528740Y-75511292D01*
X165594038Y-75457147D01*
X165661528Y-75401179D01*
X165730924Y-75343626D01*
X165801939Y-75284726D01*
X165874289Y-75224716D01*
X165947686Y-75163833D01*
X166021845Y-75102315D01*
X166096479Y-75040400D01*
X166171302Y-74978323D01*
X166246029Y-74916324D01*
X166320372Y-74854639D01*
X166394046Y-74793506D01*
X166466765Y-74733161D01*
X166538242Y-74673844D01*
X166608191Y-74615790D01*
X166676327Y-74559238D01*
X166742362Y-74504425D01*
X166806012Y-74451587D01*
X166866989Y-74400963D01*
X166925008Y-74352791D01*
X166979782Y-74307306D01*
X167031025Y-74264747D01*
X167078452Y-74225352D01*
X167121776Y-74189357D01*
X167160710Y-74157000D01*
X167194969Y-74128518D01*
X167224267Y-74104149D01*
X167248317Y-74084131D01*
X167266834Y-74068699D01*
X167279530Y-74058093D01*
X167286121Y-74052549D01*
X167287012Y-74051776D01*
X167298608Y-74040645D01*
X167273455Y-74007058D01*
X167214938Y-73935573D01*
X167151617Y-73871015D01*
X167083440Y-73813350D01*
X167010352Y-73762547D01*
X166932302Y-73718573D01*
X166849235Y-73681395D01*
X166761100Y-73650981D01*
X166667842Y-73627298D01*
X166645860Y-73622838D01*
X166598083Y-73613579D01*
X165012700Y-73610941D01*
X164874296Y-73610715D01*
X164744095Y-73610507D01*
X164621831Y-73610313D01*
X164507241Y-73610131D01*
X164400058Y-73609955D01*
X164300020Y-73609782D01*
X164206861Y-73609608D01*
X164120317Y-73609428D01*
X164040124Y-73609240D01*
X163966016Y-73609038D01*
X163897729Y-73608819D01*
X163834999Y-73608580D01*
X163777561Y-73608315D01*
X163725151Y-73608021D01*
X163677503Y-73607694D01*
X163634355Y-73607330D01*
X163595440Y-73606925D01*
X163560494Y-73606476D01*
X163529254Y-73605977D01*
X163522566Y-73605845D01*
X163522566Y-72624666D01*
X164453899Y-72624666D01*
X164453899Y-69665566D01*
X163522566Y-69665566D01*
X163522566Y-72624666D01*
X163522566Y-73605845D01*
X163501454Y-73605426D01*
X163476829Y-73604818D01*
X163455116Y-73604149D01*
X163436050Y-73603415D01*
X163419366Y-73602613D01*
X163404799Y-73601738D01*
X163392086Y-73600786D01*
X163380961Y-73599753D01*
X163371160Y-73598636D01*
X163362418Y-73597431D01*
X163354472Y-73596133D01*
X163347056Y-73594738D01*
X163339905Y-73593243D01*
X163332756Y-73591643D01*
X163325344Y-73589935D01*
X163317404Y-73588114D01*
X163308672Y-73586178D01*
X163304550Y-73585296D01*
X163246574Y-73570515D01*
X163185782Y-73550408D01*
X163124889Y-73526056D01*
X163066613Y-73498544D01*
X163015482Y-73470061D01*
X162937879Y-73418081D01*
X162866633Y-73360551D01*
X162801855Y-73297636D01*
X162743653Y-73229499D01*
X162692140Y-73156307D01*
X162647425Y-73078225D01*
X162609619Y-72995416D01*
X162578833Y-72908047D01*
X162555175Y-72816282D01*
X162546020Y-72768599D01*
X162545516Y-72765400D01*
X162545034Y-72761710D01*
X162544574Y-72757336D01*
X162544135Y-72752085D01*
X162543717Y-72745761D01*
X162543319Y-72738171D01*
X162542941Y-72729122D01*
X162542581Y-72718418D01*
X162542240Y-72705867D01*
X162541916Y-72691274D01*
X162541610Y-72674445D01*
X162541320Y-72655186D01*
X162541046Y-72633303D01*
X162540787Y-72608602D01*
X162540543Y-72580890D01*
X162540313Y-72549971D01*
X162540097Y-72515653D01*
X162539893Y-72477741D01*
X162539701Y-72436042D01*
X162539522Y-72390360D01*
X162539353Y-72340503D01*
X162539194Y-72286276D01*
X162539046Y-72227486D01*
X162538907Y-72163938D01*
X162538776Y-72095438D01*
X162538653Y-72021792D01*
X162538538Y-71942807D01*
X162538430Y-71858288D01*
X162538328Y-71768042D01*
X162538231Y-71671874D01*
X162538139Y-71569590D01*
X162538052Y-71460997D01*
X162537969Y-71345900D01*
X162537889Y-71224106D01*
X162537811Y-71095420D01*
X162537735Y-70959649D01*
X162537661Y-70816598D01*
X162537588Y-70666074D01*
X162537514Y-70507882D01*
X162537441Y-70341829D01*
X162537366Y-70167720D01*
X162537289Y-69985362D01*
X162537280Y-69962935D01*
X162536137Y-67201720D01*
X162905526Y-67202801D01*
X162905526Y-67202801D01*
G37*
X162905526Y-67202801D02*
X163274916Y-67203883D01*
X163277068Y-68188077D01*
X162974288Y-68189163D01*
X162671507Y-68190249D01*
X162697451Y-68230466D01*
X162749970Y-68304197D01*
X162808622Y-68372362D01*
X162872921Y-68434638D01*
X162942377Y-68490704D01*
X163016503Y-68540235D01*
X163094810Y-68582910D01*
X163176812Y-68618406D01*
X163262019Y-68646399D01*
X163349944Y-68666569D01*
X163359583Y-68668266D01*
X163370642Y-68670082D01*
X163381914Y-68671748D01*
X163393786Y-68673271D01*
X163406646Y-68674656D01*
X163420881Y-68675911D01*
X163436879Y-68677041D01*
X163455025Y-68678053D01*
X163475709Y-68678952D01*
X163499316Y-68679747D01*
X163526235Y-68680442D01*
X163556853Y-68681044D01*
X163591556Y-68681560D01*
X163630733Y-68681995D01*
X163674771Y-68682357D01*
X163724056Y-68682651D01*
X163778976Y-68682884D01*
X163839919Y-68683062D01*
X163907272Y-68683192D01*
X163981421Y-68683280D01*
X164062755Y-68683332D01*
X164151661Y-68683354D01*
X164248525Y-68683354D01*
X164280333Y-68683350D01*
X164376727Y-68683344D01*
X164465020Y-68683355D01*
X164545577Y-68683386D01*
X164618766Y-68683441D01*
X164684950Y-68683521D01*
X164744497Y-68683631D01*
X164797771Y-68683772D01*
X164845139Y-68683948D01*
X164886966Y-68684160D01*
X164923618Y-68684413D01*
X164955461Y-68684709D01*
X164982860Y-68685050D01*
X165006182Y-68685440D01*
X165025791Y-68685881D01*
X165042054Y-68686377D01*
X165055336Y-68686929D01*
X165066003Y-68687541D01*
X165074421Y-68688215D01*
X165080956Y-68688955D01*
X165084707Y-68689531D01*
X165146245Y-68704510D01*
X165205221Y-68727263D01*
X165260835Y-68757283D01*
X165312284Y-68794062D01*
X165358768Y-68837094D01*
X165399487Y-68885871D01*
X165403499Y-68891451D01*
X165421323Y-68919650D01*
X165439182Y-68953294D01*
X165455720Y-68989475D01*
X165469586Y-69025287D01*
X165477458Y-69050305D01*
X165488950Y-69091949D01*
X165490043Y-70858308D01*
X165491136Y-72624666D01*
X166477433Y-72624666D01*
X166477433Y-68683433D01*
X166704974Y-68682757D01*
X166764013Y-68682596D01*
X166815265Y-68682500D01*
X166859408Y-68682486D01*
X166897122Y-68682571D01*
X166929085Y-68682772D01*
X166955977Y-68683107D01*
X166978477Y-68683592D01*
X166997264Y-68684245D01*
X167013017Y-68685084D01*
X167026415Y-68686124D01*
X167038137Y-68687385D01*
X167048862Y-68688881D01*
X167059269Y-68690632D01*
X167066109Y-68691900D01*
X167126923Y-68707679D01*
X167184764Y-68731066D01*
X167238970Y-68761526D01*
X167288878Y-68798521D01*
X167333827Y-68841514D01*
X167373154Y-68889969D01*
X167406197Y-68943350D01*
X167424972Y-68982738D01*
X167431691Y-69000365D01*
X167439184Y-69022723D01*
X167446308Y-69046296D01*
X167449766Y-69058938D01*
X167461683Y-69104649D01*
X167461683Y-74785783D01*
X167450309Y-74826964D01*
X167426091Y-74899322D01*
X167393740Y-74970881D01*
X167353588Y-75041049D01*
X167305966Y-75109237D01*
X167262196Y-75162549D01*
X167256032Y-75169047D01*
X167246423Y-75178402D01*
X167233175Y-75190783D01*
X167216094Y-75206359D01*
X167194987Y-75225300D01*
X167169658Y-75247776D01*
X167139914Y-75273954D01*
X167105560Y-75304005D01*
X167066402Y-75338098D01*
X167022247Y-75376402D01*
X166972899Y-75419085D01*
X166918165Y-75466319D01*
X166857851Y-75518271D01*
X166791762Y-75575111D01*
X166719704Y-75637008D01*
X166641483Y-75704131D01*
X166600122Y-75739602D01*
X166497936Y-75827219D01*
X166401977Y-75909501D01*
X166312041Y-75986623D01*
X166227927Y-76058759D01*
X166149434Y-76126085D01*
X166076358Y-76188775D01*
X166008497Y-76247004D01*
X165945650Y-76300948D01*
X165887615Y-76350782D01*
X165834189Y-76396679D01*
X165785171Y-76438816D01*
X165740358Y-76477367D01*
X165699548Y-76512508D01*
X165662540Y-76544412D01*
X165629130Y-76573256D01*
X165599118Y-76599214D01*
X165572300Y-76622460D01*
X165548475Y-76643171D01*
X165527441Y-76661521D01*
X165508996Y-76677684D01*
X165492938Y-76691837D01*
X165479064Y-76704153D01*
X165467172Y-76714808D01*
X165457061Y-76723977D01*
X165448528Y-76731835D01*
X165441372Y-76738556D01*
X165435389Y-76744316D01*
X165430379Y-76749289D01*
X165426139Y-76753651D01*
X165422467Y-76757576D01*
X165419161Y-76761240D01*
X165416034Y-76764799D01*
X165392343Y-76793745D01*
X165368332Y-76826192D01*
X165345478Y-76859933D01*
X165325258Y-76892759D01*
X165309150Y-76922460D01*
X165305513Y-76930056D01*
X165292364Y-76961279D01*
X165280078Y-76995596D01*
X165269063Y-77031368D01*
X165259728Y-77066957D01*
X165252481Y-77100722D01*
X165247731Y-77131024D01*
X165245885Y-77156224D01*
X165246301Y-77167799D01*
X165247650Y-77181850D01*
X166355724Y-77182916D01*
X167463800Y-77183982D01*
X167463800Y-78216899D01*
X162536200Y-78216899D01*
X162536200Y-77183982D01*
X163644274Y-77182916D01*
X164752350Y-77181850D01*
X164751091Y-77152216D01*
X164745627Y-77105369D01*
X164733270Y-77054871D01*
X164714363Y-77001466D01*
X164689250Y-76945898D01*
X164658276Y-76888909D01*
X164621783Y-76831243D01*
X164580115Y-76773644D01*
X164569954Y-76760633D01*
X164564664Y-76754730D01*
X164553626Y-76743085D01*
X164537081Y-76725939D01*
X164515269Y-76703536D01*
X164488431Y-76676117D01*
X164456806Y-76643927D01*
X164420636Y-76607206D01*
X164380160Y-76566199D01*
X164335619Y-76521147D01*
X164287254Y-76472293D01*
X164235304Y-76419880D01*
X164180011Y-76364151D01*
X164121614Y-76305348D01*
X164060355Y-76243714D01*
X163996472Y-76179491D01*
X163930208Y-76112922D01*
X163861801Y-76044250D01*
X163791493Y-75973718D01*
X163719524Y-75901568D01*
X163646134Y-75828042D01*
X163636822Y-75818716D01*
X163543679Y-75725411D01*
X163454882Y-75636403D01*
X163370529Y-75551790D01*
X163290716Y-75471671D01*
X163215542Y-75396143D01*
X163145104Y-75325306D01*
X163079499Y-75259257D01*
X163018823Y-75198094D01*
X162963176Y-75141917D01*
X162912653Y-75090824D01*
X162867353Y-75044912D01*
X162827372Y-75004281D01*
X162792808Y-74969027D01*
X162763759Y-74939251D01*
X162740321Y-74915050D01*
X162722592Y-74896523D01*
X162710669Y-74883767D01*
X162704650Y-74876882D01*
X162704586Y-74876800D01*
X162660640Y-74814649D01*
X162622540Y-74750691D01*
X162591011Y-74686276D01*
X162566774Y-74622752D01*
X162564105Y-74614333D01*
X162560034Y-74601239D01*
X162556378Y-74589357D01*
X162553117Y-74578183D01*
X162550227Y-74567216D01*
X162547685Y-74555952D01*
X162545470Y-74543890D01*
X162543559Y-74530528D01*
X162541930Y-74515362D01*
X162540560Y-74497892D01*
X162539427Y-74477613D01*
X162538509Y-74454025D01*
X162537782Y-74426625D01*
X162537225Y-74394910D01*
X162536816Y-74358379D01*
X162536531Y-74316528D01*
X162536349Y-74268856D01*
X162536248Y-74214860D01*
X162536203Y-74154038D01*
X162536196Y-74085888D01*
X162536200Y-74009907D01*
X162536200Y-73486155D01*
X163767806Y-74717756D01*
X163875518Y-74825456D01*
X163977383Y-74927287D01*
X164073532Y-75023378D01*
X164164092Y-75113856D01*
X164249195Y-75198850D01*
X164328970Y-75278488D01*
X164403545Y-75352900D01*
X164473051Y-75422213D01*
X164537616Y-75486557D01*
X164597372Y-75546058D01*
X164652446Y-75600846D01*
X164702968Y-75651050D01*
X164749069Y-75696798D01*
X164790876Y-75738217D01*
X164828521Y-75775437D01*
X164862132Y-75808587D01*
X164891839Y-75837794D01*
X164917771Y-75863187D01*
X164940058Y-75884894D01*
X164958830Y-75903044D01*
X164974215Y-75917766D01*
X164986343Y-75929188D01*
X164995345Y-75937437D01*
X165001348Y-75942644D01*
X165004483Y-75944936D01*
X165004998Y-75945047D01*
X165009559Y-75941340D01*
X165020318Y-75932488D01*
X165036990Y-75918727D01*
X165059288Y-75900294D01*
X165086925Y-75877429D01*
X165119616Y-75850367D01*
X165157075Y-75819346D01*
X165199015Y-75784603D01*
X165245150Y-75746377D01*
X165295195Y-75704903D01*
X165348862Y-75660421D01*
X165405866Y-75613167D01*
X165465921Y-75563378D01*
X165528740Y-75511292D01*
X165594038Y-75457147D01*
X165661528Y-75401179D01*
X165730924Y-75343626D01*
X165801939Y-75284726D01*
X165874289Y-75224716D01*
X165947686Y-75163833D01*
X166021845Y-75102315D01*
X166096479Y-75040400D01*
X166171302Y-74978323D01*
X166246029Y-74916324D01*
X166320372Y-74854639D01*
X166394046Y-74793506D01*
X166466765Y-74733161D01*
X166538242Y-74673844D01*
X166608191Y-74615790D01*
X166676327Y-74559238D01*
X166742362Y-74504425D01*
X166806012Y-74451587D01*
X166866989Y-74400963D01*
X166925008Y-74352791D01*
X166979782Y-74307306D01*
X167031025Y-74264747D01*
X167078452Y-74225352D01*
X167121776Y-74189357D01*
X167160710Y-74157000D01*
X167194969Y-74128518D01*
X167224267Y-74104149D01*
X167248317Y-74084131D01*
X167266834Y-74068699D01*
X167279530Y-74058093D01*
X167286121Y-74052549D01*
X167287012Y-74051776D01*
X167298608Y-74040645D01*
X167273455Y-74007058D01*
X167214938Y-73935573D01*
X167151617Y-73871015D01*
X167083440Y-73813350D01*
X167010352Y-73762547D01*
X166932302Y-73718573D01*
X166849235Y-73681395D01*
X166761100Y-73650981D01*
X166667842Y-73627298D01*
X166645860Y-73622838D01*
X166598083Y-73613579D01*
X165012700Y-73610941D01*
X164874296Y-73610715D01*
X164744095Y-73610507D01*
X164621831Y-73610313D01*
X164507241Y-73610131D01*
X164400058Y-73609955D01*
X164300020Y-73609782D01*
X164206861Y-73609608D01*
X164120317Y-73609428D01*
X164040124Y-73609240D01*
X163966016Y-73609038D01*
X163897729Y-73608819D01*
X163834999Y-73608580D01*
X163777561Y-73608315D01*
X163725151Y-73608021D01*
X163677503Y-73607694D01*
X163634355Y-73607330D01*
X163595440Y-73606925D01*
X163560494Y-73606476D01*
X163529254Y-73605977D01*
X163522566Y-73605845D01*
X163522566Y-72624666D01*
X164453899Y-72624666D01*
X164453899Y-69665566D01*
X163522566Y-69665566D01*
X163522566Y-72624666D01*
X163522566Y-73605845D01*
X163501454Y-73605426D01*
X163476829Y-73604818D01*
X163455116Y-73604149D01*
X163436050Y-73603415D01*
X163419366Y-73602613D01*
X163404799Y-73601738D01*
X163392086Y-73600786D01*
X163380961Y-73599753D01*
X163371160Y-73598636D01*
X163362418Y-73597431D01*
X163354472Y-73596133D01*
X163347056Y-73594738D01*
X163339905Y-73593243D01*
X163332756Y-73591643D01*
X163325344Y-73589935D01*
X163317404Y-73588114D01*
X163308672Y-73586178D01*
X163304550Y-73585296D01*
X163246574Y-73570515D01*
X163185782Y-73550408D01*
X163124889Y-73526056D01*
X163066613Y-73498544D01*
X163015482Y-73470061D01*
X162937879Y-73418081D01*
X162866633Y-73360551D01*
X162801855Y-73297636D01*
X162743653Y-73229499D01*
X162692140Y-73156307D01*
X162647425Y-73078225D01*
X162609619Y-72995416D01*
X162578833Y-72908047D01*
X162555175Y-72816282D01*
X162546020Y-72768599D01*
X162545516Y-72765400D01*
X162545034Y-72761710D01*
X162544574Y-72757336D01*
X162544135Y-72752085D01*
X162543717Y-72745761D01*
X162543319Y-72738171D01*
X162542941Y-72729122D01*
X162542581Y-72718418D01*
X162542240Y-72705867D01*
X162541916Y-72691274D01*
X162541610Y-72674445D01*
X162541320Y-72655186D01*
X162541046Y-72633303D01*
X162540787Y-72608602D01*
X162540543Y-72580890D01*
X162540313Y-72549971D01*
X162540097Y-72515653D01*
X162539893Y-72477741D01*
X162539701Y-72436042D01*
X162539522Y-72390360D01*
X162539353Y-72340503D01*
X162539194Y-72286276D01*
X162539046Y-72227486D01*
X162538907Y-72163938D01*
X162538776Y-72095438D01*
X162538653Y-72021792D01*
X162538538Y-71942807D01*
X162538430Y-71858288D01*
X162538328Y-71768042D01*
X162538231Y-71671874D01*
X162538139Y-71569590D01*
X162538052Y-71460997D01*
X162537969Y-71345900D01*
X162537889Y-71224106D01*
X162537811Y-71095420D01*
X162537735Y-70959649D01*
X162537661Y-70816598D01*
X162537588Y-70666074D01*
X162537514Y-70507882D01*
X162537441Y-70341829D01*
X162537366Y-70167720D01*
X162537289Y-69985362D01*
X162537280Y-69962935D01*
X162536137Y-67201720D01*
X162905526Y-67202801D01*
D12*
G36*
X43750000Y-51250000D02*
G01*
X44375000Y-50625000D01*
X44375000Y-51875000D01*
X43750000Y-51250000D01*
G37*
X43750000Y-51250000D02*
X44375000Y-50625000D01*
X44375000Y-51875000D01*
X43750000Y-51250000D01*
D10*
X40000000Y-70000000D02*
X40000000Y-50000000D01*
X60000000Y-70000000D02*
X40000000Y-70000000D01*
X60000000Y-50000000D02*
X60000000Y-70000000D01*
X40000000Y-50000000D02*
X60000000Y-50000000D01*
X60000000Y-50000000D02*
X80000000Y-50000000D01*
X80000000Y-50000000D02*
X80000000Y-70000000D01*
X80000000Y-70000000D02*
X60000000Y-70000000D01*
X60000000Y-70000000D02*
X60000000Y-50000000D01*
D12*
G36*
X63750000Y-51250000D02*
G01*
X64375000Y-50625000D01*
X64375000Y-51875000D01*
X63750000Y-51250000D01*
G37*
X63750000Y-51250000D02*
X64375000Y-50625000D01*
X64375000Y-51875000D01*
X63750000Y-51250000D01*
D10*
X80000000Y-50000000D02*
X100000000Y-50000000D01*
X100000000Y-50000000D02*
X100000000Y-70000000D01*
X100000000Y-70000000D02*
X80000000Y-70000000D01*
X80000000Y-70000000D02*
X80000000Y-50000000D01*
D12*
G36*
X83750000Y-51250000D02*
G01*
X84375000Y-50625000D01*
X84375000Y-51875000D01*
X83750000Y-51250000D01*
G37*
X83750000Y-51250000D02*
X84375000Y-50625000D01*
X84375000Y-51875000D01*
X83750000Y-51250000D01*
G36*
X103750000Y-51250000D02*
G01*
X104375000Y-50625000D01*
X104375000Y-51875000D01*
X103750000Y-51250000D01*
G37*
X103750000Y-51250000D02*
X104375000Y-50625000D01*
X104375000Y-51875000D01*
X103750000Y-51250000D01*
D10*
X100000000Y-70000000D02*
X100000000Y-50000000D01*
X120000000Y-70000000D02*
X100000000Y-70000000D01*
X120000000Y-50000000D02*
X120000000Y-70000000D01*
X100000000Y-50000000D02*
X120000000Y-50000000D01*
D12*
G36*
X123750000Y-51250000D02*
G01*
X124375000Y-50625000D01*
X124375000Y-51875000D01*
X123750000Y-51250000D01*
G37*
X123750000Y-51250000D02*
X124375000Y-50625000D01*
X124375000Y-51875000D01*
X123750000Y-51250000D01*
D10*
X120000000Y-70000000D02*
X120000000Y-50000000D01*
X140000000Y-70000000D02*
X120000000Y-70000000D01*
X140000000Y-50000000D02*
X140000000Y-70000000D01*
X120000000Y-50000000D02*
X140000000Y-50000000D01*
X40000000Y-70000000D02*
X60000000Y-70000000D01*
X60000000Y-70000000D02*
X60000000Y-90000000D01*
X60000000Y-90000000D02*
X40000000Y-90000000D01*
X40000000Y-90000000D02*
X40000000Y-70000000D01*
D12*
G36*
X43750000Y-71250000D02*
G01*
X44375000Y-70625000D01*
X44375000Y-71875000D01*
X43750000Y-71250000D01*
G37*
X43750000Y-71250000D02*
X44375000Y-70625000D01*
X44375000Y-71875000D01*
X43750000Y-71250000D01*
D10*
X60000000Y-70000000D02*
X80000000Y-70000000D01*
X80000000Y-70000000D02*
X80000000Y-90000000D01*
X80000000Y-90000000D02*
X60000000Y-90000000D01*
X60000000Y-90000000D02*
X60000000Y-70000000D01*
D12*
G36*
X63750000Y-71250000D02*
G01*
X64375000Y-70625000D01*
X64375000Y-71875000D01*
X63750000Y-71250000D01*
G37*
X63750000Y-71250000D02*
X64375000Y-70625000D01*
X64375000Y-71875000D01*
X63750000Y-71250000D01*
G36*
X83750000Y-71250000D02*
G01*
X84375000Y-70625000D01*
X84375000Y-71875000D01*
X83750000Y-71250000D01*
G37*
X83750000Y-71250000D02*
X84375000Y-70625000D01*
X84375000Y-71875000D01*
X83750000Y-71250000D01*
D10*
X80000000Y-90000000D02*
X80000000Y-70000000D01*
X100000000Y-90000000D02*
X80000000Y-90000000D01*
X100000000Y-70000000D02*
X100000000Y-90000000D01*
X80000000Y-70000000D02*
X100000000Y-70000000D01*
X100000000Y-70000000D02*
X120000000Y-70000000D01*
X120000000Y-70000000D02*
X120000000Y-90000000D01*
X120000000Y-90000000D02*
X100000000Y-90000000D01*
X100000000Y-90000000D02*
X100000000Y-70000000D01*
D12*
G36*
X103750000Y-71250000D02*
G01*
X104375000Y-70625000D01*
X104375000Y-71875000D01*
X103750000Y-71250000D01*
G37*
X103750000Y-71250000D02*
X104375000Y-70625000D01*
X104375000Y-71875000D01*
X103750000Y-71250000D01*
G36*
X123750000Y-71250000D02*
G01*
X124375000Y-70625000D01*
X124375000Y-71875000D01*
X123750000Y-71250000D01*
G37*
X123750000Y-71250000D02*
X124375000Y-70625000D01*
X124375000Y-71875000D01*
X123750000Y-71250000D01*
D10*
X120000000Y-90000000D02*
X120000000Y-70000000D01*
X140000000Y-90000000D02*
X120000000Y-90000000D01*
X140000000Y-70000000D02*
X140000000Y-90000000D01*
X120000000Y-70000000D02*
X140000000Y-70000000D01*
X140000000Y-70000000D02*
X160000000Y-70000000D01*
X160000000Y-70000000D02*
X160000000Y-90000000D01*
X160000000Y-90000000D02*
X140000000Y-90000000D01*
X140000000Y-90000000D02*
X140000000Y-70000000D01*
D12*
G36*
X143750000Y-71250000D02*
G01*
X144375000Y-70625000D01*
X144375000Y-71875000D01*
X143750000Y-71250000D01*
G37*
X143750000Y-71250000D02*
X144375000Y-70625000D01*
X144375000Y-71875000D01*
X143750000Y-71250000D01*
G36*
X143750000Y-51250000D02*
G01*
X144375000Y-50625000D01*
X144375000Y-51875000D01*
X143750000Y-51250000D01*
G37*
X143750000Y-51250000D02*
X144375000Y-50625000D01*
X144375000Y-51875000D01*
X143750000Y-51250000D01*
D10*
X140000000Y-70000000D02*
X140000000Y-50000000D01*
X160000000Y-70000000D02*
X140000000Y-70000000D01*
X160000000Y-50000000D02*
X160000000Y-70000000D01*
X140000000Y-50000000D02*
X160000000Y-50000000D01*
D13*
X46140000Y-52455000D02*
X44325000Y-52455000D01*
X46140000Y-52190000D02*
X46140000Y-52455000D01*
X50000000Y-52190000D02*
X46140000Y-52190000D01*
X53860000Y-52190000D02*
X53860000Y-52455000D01*
X50000000Y-52190000D02*
X53860000Y-52190000D01*
X46140000Y-67810000D02*
X46140000Y-67545000D01*
X50000000Y-67810000D02*
X46140000Y-67810000D01*
X53860000Y-67810000D02*
X53860000Y-67545000D01*
X50000000Y-67810000D02*
X53860000Y-67810000D01*
X70000000Y-67810000D02*
X73860000Y-67810000D01*
X73860000Y-67810000D02*
X73860000Y-67545000D01*
X70000000Y-67810000D02*
X66140000Y-67810000D01*
X66140000Y-67810000D02*
X66140000Y-67545000D01*
X70000000Y-52190000D02*
X73860000Y-52190000D01*
X73860000Y-52190000D02*
X73860000Y-52455000D01*
X70000000Y-52190000D02*
X66140000Y-52190000D01*
X66140000Y-52190000D02*
X66140000Y-52455000D01*
X66140000Y-52455000D02*
X64325000Y-52455000D01*
X86140000Y-52455000D02*
X84325000Y-52455000D01*
X86140000Y-52190000D02*
X86140000Y-52455000D01*
X90000000Y-52190000D02*
X86140000Y-52190000D01*
X93860000Y-52190000D02*
X93860000Y-52455000D01*
X90000000Y-52190000D02*
X93860000Y-52190000D01*
X86140000Y-67810000D02*
X86140000Y-67545000D01*
X90000000Y-67810000D02*
X86140000Y-67810000D01*
X93860000Y-67810000D02*
X93860000Y-67545000D01*
X90000000Y-67810000D02*
X93860000Y-67810000D01*
X110000000Y-67810000D02*
X113860000Y-67810000D01*
X113860000Y-67810000D02*
X113860000Y-67545000D01*
X110000000Y-67810000D02*
X106140000Y-67810000D01*
X106140000Y-67810000D02*
X106140000Y-67545000D01*
X110000000Y-52190000D02*
X113860000Y-52190000D01*
X113860000Y-52190000D02*
X113860000Y-52455000D01*
X110000000Y-52190000D02*
X106140000Y-52190000D01*
X106140000Y-52190000D02*
X106140000Y-52455000D01*
X106140000Y-52455000D02*
X104325000Y-52455000D01*
X130000000Y-67810000D02*
X133860000Y-67810000D01*
X133860000Y-67810000D02*
X133860000Y-67545000D01*
X130000000Y-67810000D02*
X126140000Y-67810000D01*
X126140000Y-67810000D02*
X126140000Y-67545000D01*
X130000000Y-52190000D02*
X133860000Y-52190000D01*
X133860000Y-52190000D02*
X133860000Y-52455000D01*
X130000000Y-52190000D02*
X126140000Y-52190000D01*
X126140000Y-52190000D02*
X126140000Y-52455000D01*
X126140000Y-52455000D02*
X124325000Y-52455000D01*
X46140000Y-72455000D02*
X44325000Y-72455000D01*
X46140000Y-72190000D02*
X46140000Y-72455000D01*
X50000000Y-72190000D02*
X46140000Y-72190000D01*
X53860000Y-72190000D02*
X53860000Y-72455000D01*
X50000000Y-72190000D02*
X53860000Y-72190000D01*
X46140000Y-87810000D02*
X46140000Y-87545000D01*
X50000000Y-87810000D02*
X46140000Y-87810000D01*
X53860000Y-87810000D02*
X53860000Y-87545000D01*
X50000000Y-87810000D02*
X53860000Y-87810000D01*
X70000000Y-87810000D02*
X73860000Y-87810000D01*
X73860000Y-87810000D02*
X73860000Y-87545000D01*
X70000000Y-87810000D02*
X66140000Y-87810000D01*
X66140000Y-87810000D02*
X66140000Y-87545000D01*
X70000000Y-72190000D02*
X73860000Y-72190000D01*
X73860000Y-72190000D02*
X73860000Y-72455000D01*
X70000000Y-72190000D02*
X66140000Y-72190000D01*
X66140000Y-72190000D02*
X66140000Y-72455000D01*
X66140000Y-72455000D02*
X64325000Y-72455000D01*
X86140000Y-72455000D02*
X84325000Y-72455000D01*
X86140000Y-72190000D02*
X86140000Y-72455000D01*
X90000000Y-72190000D02*
X86140000Y-72190000D01*
X93860000Y-72190000D02*
X93860000Y-72455000D01*
X90000000Y-72190000D02*
X93860000Y-72190000D01*
X86140000Y-87810000D02*
X86140000Y-87545000D01*
X90000000Y-87810000D02*
X86140000Y-87810000D01*
X93860000Y-87810000D02*
X93860000Y-87545000D01*
X90000000Y-87810000D02*
X93860000Y-87810000D01*
X106140000Y-72455000D02*
X104325000Y-72455000D01*
X106140000Y-72190000D02*
X106140000Y-72455000D01*
X110000000Y-72190000D02*
X106140000Y-72190000D01*
X113860000Y-72190000D02*
X113860000Y-72455000D01*
X110000000Y-72190000D02*
X113860000Y-72190000D01*
X106140000Y-87810000D02*
X106140000Y-87545000D01*
X110000000Y-87810000D02*
X106140000Y-87810000D01*
X113860000Y-87810000D02*
X113860000Y-87545000D01*
X110000000Y-87810000D02*
X113860000Y-87810000D01*
X126140000Y-72455000D02*
X124325000Y-72455000D01*
X126140000Y-72190000D02*
X126140000Y-72455000D01*
X130000000Y-72190000D02*
X126140000Y-72190000D01*
X133860000Y-72190000D02*
X133860000Y-72455000D01*
X130000000Y-72190000D02*
X133860000Y-72190000D01*
X126140000Y-87810000D02*
X126140000Y-87545000D01*
X130000000Y-87810000D02*
X126140000Y-87810000D01*
X133860000Y-87810000D02*
X133860000Y-87545000D01*
X130000000Y-87810000D02*
X133860000Y-87810000D01*
X150000000Y-87810000D02*
X153860000Y-87810000D01*
X153860000Y-87810000D02*
X153860000Y-87545000D01*
X150000000Y-87810000D02*
X146140000Y-87810000D01*
X146140000Y-87810000D02*
X146140000Y-87545000D01*
X150000000Y-72190000D02*
X153860000Y-72190000D01*
X153860000Y-72190000D02*
X153860000Y-72455000D01*
X150000000Y-72190000D02*
X146140000Y-72190000D01*
X146140000Y-72190000D02*
X146140000Y-72455000D01*
X146140000Y-72455000D02*
X144325000Y-72455000D01*
X150000000Y-67810000D02*
X153860000Y-67810000D01*
X153860000Y-67810000D02*
X153860000Y-67545000D01*
X150000000Y-67810000D02*
X146140000Y-67810000D01*
X146140000Y-67810000D02*
X146140000Y-67545000D01*
X150000000Y-52190000D02*
X153860000Y-52190000D01*
X153860000Y-52190000D02*
X153860000Y-52455000D01*
X150000000Y-52190000D02*
X146140000Y-52190000D01*
X146140000Y-52190000D02*
X146140000Y-52455000D01*
X146140000Y-52455000D02*
X144325000Y-52455000D01*
X32420000Y-76330000D02*
X37620000Y-76330000D01*
X32420000Y-66110000D02*
X32420000Y-76330000D01*
X37620000Y-63510000D02*
X37620000Y-76330000D01*
X32420000Y-66110000D02*
X35020000Y-66110000D01*
X35020000Y-66110000D02*
X35020000Y-63510000D01*
X35020000Y-63510000D02*
X37620000Y-63510000D01*
X32420000Y-64840000D02*
X32420000Y-63510000D01*
X32420000Y-63510000D02*
X33750000Y-63510000D01*
D10*
X48880952Y-60452380D02*
X48404761Y-60452380D01*
X48404761Y-59452380D01*
X49214285Y-59928571D02*
X49547619Y-59928571D01*
X49690476Y-60452380D02*
X49214285Y-60452380D01*
X49214285Y-59452380D01*
X49690476Y-59452380D01*
X50119047Y-60452380D02*
X50119047Y-59452380D01*
X50357142Y-59452380D01*
X50500000Y-59500000D01*
X50595238Y-59595238D01*
X50642857Y-59690476D01*
X50690476Y-59880952D01*
X50690476Y-60023809D01*
X50642857Y-60214285D01*
X50595238Y-60309523D01*
X50500000Y-60404761D01*
X50357142Y-60452380D01*
X50119047Y-60452380D01*
X51642857Y-60452380D02*
X51071428Y-60452380D01*
X51357142Y-60452380D02*
X51357142Y-59452380D01*
X51261904Y-59595238D01*
X51166666Y-59690476D01*
X51071428Y-59738095D01*
X68880952Y-60452380D02*
X68404761Y-60452380D01*
X68404761Y-59452380D01*
X69214285Y-59928571D02*
X69547619Y-59928571D01*
X69690476Y-60452380D02*
X69214285Y-60452380D01*
X69214285Y-59452380D01*
X69690476Y-59452380D01*
X70119047Y-60452380D02*
X70119047Y-59452380D01*
X70357142Y-59452380D01*
X70500000Y-59500000D01*
X70595238Y-59595238D01*
X70642857Y-59690476D01*
X70690476Y-59880952D01*
X70690476Y-60023809D01*
X70642857Y-60214285D01*
X70595238Y-60309523D01*
X70500000Y-60404761D01*
X70357142Y-60452380D01*
X70119047Y-60452380D01*
X71071428Y-59547619D02*
X71119047Y-59500000D01*
X71214285Y-59452380D01*
X71452380Y-59452380D01*
X71547619Y-59500000D01*
X71595238Y-59547619D01*
X71642857Y-59642857D01*
X71642857Y-59738095D01*
X71595238Y-59880952D01*
X71023809Y-60452380D01*
X71642857Y-60452380D01*
X88880952Y-60452380D02*
X88404761Y-60452380D01*
X88404761Y-59452380D01*
X89214285Y-59928571D02*
X89547619Y-59928571D01*
X89690476Y-60452380D02*
X89214285Y-60452380D01*
X89214285Y-59452380D01*
X89690476Y-59452380D01*
X90119047Y-60452380D02*
X90119047Y-59452380D01*
X90357142Y-59452380D01*
X90500000Y-59500000D01*
X90595238Y-59595238D01*
X90642857Y-59690476D01*
X90690476Y-59880952D01*
X90690476Y-60023809D01*
X90642857Y-60214285D01*
X90595238Y-60309523D01*
X90500000Y-60404761D01*
X90357142Y-60452380D01*
X90119047Y-60452380D01*
X91023809Y-59452380D02*
X91642857Y-59452380D01*
X91309523Y-59833333D01*
X91452380Y-59833333D01*
X91547619Y-59880952D01*
X91595238Y-59928571D01*
X91642857Y-60023809D01*
X91642857Y-60261904D01*
X91595238Y-60357142D01*
X91547619Y-60404761D01*
X91452380Y-60452380D01*
X91166666Y-60452380D01*
X91071428Y-60404761D01*
X91023809Y-60357142D01*
X108880952Y-60452380D02*
X108404761Y-60452380D01*
X108404761Y-59452380D01*
X109214285Y-59928571D02*
X109547619Y-59928571D01*
X109690476Y-60452380D02*
X109214285Y-60452380D01*
X109214285Y-59452380D01*
X109690476Y-59452380D01*
X110119047Y-60452380D02*
X110119047Y-59452380D01*
X110357142Y-59452380D01*
X110500000Y-59500000D01*
X110595238Y-59595238D01*
X110642857Y-59690476D01*
X110690476Y-59880952D01*
X110690476Y-60023809D01*
X110642857Y-60214285D01*
X110595238Y-60309523D01*
X110500000Y-60404761D01*
X110357142Y-60452380D01*
X110119047Y-60452380D01*
X111547619Y-59785714D02*
X111547619Y-60452380D01*
X111309523Y-59404761D02*
X111071428Y-60119047D01*
X111690476Y-60119047D01*
X128880952Y-60452380D02*
X128404761Y-60452380D01*
X128404761Y-59452380D01*
X129214285Y-59928571D02*
X129547619Y-59928571D01*
X129690476Y-60452380D02*
X129214285Y-60452380D01*
X129214285Y-59452380D01*
X129690476Y-59452380D01*
X130119047Y-60452380D02*
X130119047Y-59452380D01*
X130357142Y-59452380D01*
X130500000Y-59500000D01*
X130595238Y-59595238D01*
X130642857Y-59690476D01*
X130690476Y-59880952D01*
X130690476Y-60023809D01*
X130642857Y-60214285D01*
X130595238Y-60309523D01*
X130500000Y-60404761D01*
X130357142Y-60452380D01*
X130119047Y-60452380D01*
X131595238Y-59452380D02*
X131119047Y-59452380D01*
X131071428Y-59928571D01*
X131119047Y-59880952D01*
X131214285Y-59833333D01*
X131452380Y-59833333D01*
X131547619Y-59880952D01*
X131595238Y-59928571D01*
X131642857Y-60023809D01*
X131642857Y-60261904D01*
X131595238Y-60357142D01*
X131547619Y-60404761D01*
X131452380Y-60452380D01*
X131214285Y-60452380D01*
X131119047Y-60404761D01*
X131071428Y-60357142D01*
X48880952Y-80452380D02*
X48404761Y-80452380D01*
X48404761Y-79452380D01*
X49214285Y-79928571D02*
X49547619Y-79928571D01*
X49690476Y-80452380D02*
X49214285Y-80452380D01*
X49214285Y-79452380D01*
X49690476Y-79452380D01*
X50119047Y-80452380D02*
X50119047Y-79452380D01*
X50357142Y-79452380D01*
X50500000Y-79500000D01*
X50595238Y-79595238D01*
X50642857Y-79690476D01*
X50690476Y-79880952D01*
X50690476Y-80023809D01*
X50642857Y-80214285D01*
X50595238Y-80309523D01*
X50500000Y-80404761D01*
X50357142Y-80452380D01*
X50119047Y-80452380D01*
X51547619Y-79452380D02*
X51357142Y-79452380D01*
X51261904Y-79500000D01*
X51214285Y-79547619D01*
X51119047Y-79690476D01*
X51071428Y-79880952D01*
X51071428Y-80261904D01*
X51119047Y-80357142D01*
X51166666Y-80404761D01*
X51261904Y-80452380D01*
X51452380Y-80452380D01*
X51547619Y-80404761D01*
X51595238Y-80357142D01*
X51642857Y-80261904D01*
X51642857Y-80023809D01*
X51595238Y-79928571D01*
X51547619Y-79880952D01*
X51452380Y-79833333D01*
X51261904Y-79833333D01*
X51166666Y-79880952D01*
X51119047Y-79928571D01*
X51071428Y-80023809D01*
X68880952Y-80452380D02*
X68404761Y-80452380D01*
X68404761Y-79452380D01*
X69214285Y-79928571D02*
X69547619Y-79928571D01*
X69690476Y-80452380D02*
X69214285Y-80452380D01*
X69214285Y-79452380D01*
X69690476Y-79452380D01*
X70119047Y-80452380D02*
X70119047Y-79452380D01*
X70357142Y-79452380D01*
X70500000Y-79500000D01*
X70595238Y-79595238D01*
X70642857Y-79690476D01*
X70690476Y-79880952D01*
X70690476Y-80023809D01*
X70642857Y-80214285D01*
X70595238Y-80309523D01*
X70500000Y-80404761D01*
X70357142Y-80452380D01*
X70119047Y-80452380D01*
X71023809Y-79452380D02*
X71690476Y-79452380D01*
X71261904Y-80452380D01*
X88880952Y-80452380D02*
X88404761Y-80452380D01*
X88404761Y-79452380D01*
X89214285Y-79928571D02*
X89547619Y-79928571D01*
X89690476Y-80452380D02*
X89214285Y-80452380D01*
X89214285Y-79452380D01*
X89690476Y-79452380D01*
X90119047Y-80452380D02*
X90119047Y-79452380D01*
X90357142Y-79452380D01*
X90500000Y-79500000D01*
X90595238Y-79595238D01*
X90642857Y-79690476D01*
X90690476Y-79880952D01*
X90690476Y-80023809D01*
X90642857Y-80214285D01*
X90595238Y-80309523D01*
X90500000Y-80404761D01*
X90357142Y-80452380D01*
X90119047Y-80452380D01*
X91261904Y-79880952D02*
X91166666Y-79833333D01*
X91119047Y-79785714D01*
X91071428Y-79690476D01*
X91071428Y-79642857D01*
X91119047Y-79547619D01*
X91166666Y-79500000D01*
X91261904Y-79452380D01*
X91452380Y-79452380D01*
X91547619Y-79500000D01*
X91595238Y-79547619D01*
X91642857Y-79642857D01*
X91642857Y-79690476D01*
X91595238Y-79785714D01*
X91547619Y-79833333D01*
X91452380Y-79880952D01*
X91261904Y-79880952D01*
X91166666Y-79928571D01*
X91119047Y-79976190D01*
X91071428Y-80071428D01*
X91071428Y-80261904D01*
X91119047Y-80357142D01*
X91166666Y-80404761D01*
X91261904Y-80452380D01*
X91452380Y-80452380D01*
X91547619Y-80404761D01*
X91595238Y-80357142D01*
X91642857Y-80261904D01*
X91642857Y-80071428D01*
X91595238Y-79976190D01*
X91547619Y-79928571D01*
X91452380Y-79880952D01*
X108880952Y-80452380D02*
X108404761Y-80452380D01*
X108404761Y-79452380D01*
X109214285Y-79928571D02*
X109547619Y-79928571D01*
X109690476Y-80452380D02*
X109214285Y-80452380D01*
X109214285Y-79452380D01*
X109690476Y-79452380D01*
X110119047Y-80452380D02*
X110119047Y-79452380D01*
X110357142Y-79452380D01*
X110500000Y-79500000D01*
X110595238Y-79595238D01*
X110642857Y-79690476D01*
X110690476Y-79880952D01*
X110690476Y-80023809D01*
X110642857Y-80214285D01*
X110595238Y-80309523D01*
X110500000Y-80404761D01*
X110357142Y-80452380D01*
X110119047Y-80452380D01*
X111166666Y-80452380D02*
X111357142Y-80452380D01*
X111452380Y-80404761D01*
X111500000Y-80357142D01*
X111595238Y-80214285D01*
X111642857Y-80023809D01*
X111642857Y-79642857D01*
X111595238Y-79547619D01*
X111547619Y-79500000D01*
X111452380Y-79452380D01*
X111261904Y-79452380D01*
X111166666Y-79500000D01*
X111119047Y-79547619D01*
X111071428Y-79642857D01*
X111071428Y-79880952D01*
X111119047Y-79976190D01*
X111166666Y-80023809D01*
X111261904Y-80071428D01*
X111452380Y-80071428D01*
X111547619Y-80023809D01*
X111595238Y-79976190D01*
X111642857Y-79880952D01*
X128404761Y-80452380D02*
X127928571Y-80452380D01*
X127928571Y-79452380D01*
X128738095Y-79928571D02*
X129071428Y-79928571D01*
X129214285Y-80452380D02*
X128738095Y-80452380D01*
X128738095Y-79452380D01*
X129214285Y-79452380D01*
X129642857Y-80452380D02*
X129642857Y-79452380D01*
X129880952Y-79452380D01*
X130023809Y-79500000D01*
X130119047Y-79595238D01*
X130166666Y-79690476D01*
X130214285Y-79880952D01*
X130214285Y-80023809D01*
X130166666Y-80214285D01*
X130119047Y-80309523D01*
X130023809Y-80404761D01*
X129880952Y-80452380D01*
X129642857Y-80452380D01*
X131166666Y-80452380D02*
X130595238Y-80452380D01*
X130880952Y-80452380D02*
X130880952Y-79452380D01*
X130785714Y-79595238D01*
X130690476Y-79690476D01*
X130595238Y-79738095D01*
X131785714Y-79452380D02*
X131880952Y-79452380D01*
X131976190Y-79500000D01*
X132023809Y-79547619D01*
X132071428Y-79642857D01*
X132119047Y-79833333D01*
X132119047Y-80071428D01*
X132071428Y-80261904D01*
X132023809Y-80357142D01*
X131976190Y-80404761D01*
X131880952Y-80452380D01*
X131785714Y-80452380D01*
X131690476Y-80404761D01*
X131642857Y-80357142D01*
X131595238Y-80261904D01*
X131547619Y-80071428D01*
X131547619Y-79833333D01*
X131595238Y-79642857D01*
X131642857Y-79547619D01*
X131690476Y-79500000D01*
X131785714Y-79452380D01*
X148404761Y-80452380D02*
X147928571Y-80452380D01*
X147928571Y-79452380D01*
X148738095Y-79928571D02*
X149071428Y-79928571D01*
X149214285Y-80452380D02*
X148738095Y-80452380D01*
X148738095Y-79452380D01*
X149214285Y-79452380D01*
X149642857Y-80452380D02*
X149642857Y-79452380D01*
X149880952Y-79452380D01*
X150023809Y-79500000D01*
X150119047Y-79595238D01*
X150166666Y-79690476D01*
X150214285Y-79880952D01*
X150214285Y-80023809D01*
X150166666Y-80214285D01*
X150119047Y-80309523D01*
X150023809Y-80404761D01*
X149880952Y-80452380D01*
X149642857Y-80452380D01*
X151166666Y-80452380D02*
X150595238Y-80452380D01*
X150880952Y-80452380D02*
X150880952Y-79452380D01*
X150785714Y-79595238D01*
X150690476Y-79690476D01*
X150595238Y-79738095D01*
X151547619Y-79547619D02*
X151595238Y-79500000D01*
X151690476Y-79452380D01*
X151928571Y-79452380D01*
X152023809Y-79500000D01*
X152071428Y-79547619D01*
X152119047Y-79642857D01*
X152119047Y-79738095D01*
X152071428Y-79880952D01*
X151500000Y-80452380D01*
X152119047Y-80452380D01*
X148404761Y-60452380D02*
X147928571Y-60452380D01*
X147928571Y-59452380D01*
X148738095Y-59928571D02*
X149071428Y-59928571D01*
X149214285Y-60452380D02*
X148738095Y-60452380D01*
X148738095Y-59452380D01*
X149214285Y-59452380D01*
X149642857Y-60452380D02*
X149642857Y-59452380D01*
X149880952Y-59452380D01*
X150023809Y-59500000D01*
X150119047Y-59595238D01*
X150166666Y-59690476D01*
X150214285Y-59880952D01*
X150214285Y-60023809D01*
X150166666Y-60214285D01*
X150119047Y-60309523D01*
X150023809Y-60404761D01*
X149880952Y-60452380D01*
X149642857Y-60452380D01*
X151166666Y-60452380D02*
X150595238Y-60452380D01*
X150880952Y-60452380D02*
X150880952Y-59452380D01*
X150785714Y-59595238D01*
X150690476Y-59690476D01*
X150595238Y-59738095D01*
X152119047Y-60452380D02*
X151547619Y-60452380D01*
X151833333Y-60452380D02*
X151833333Y-59452380D01*
X151738095Y-59595238D01*
X151642857Y-59690476D01*
X151547619Y-59738095D01*
X49238095Y-50802380D02*
X49238095Y-51611904D01*
X49285714Y-51707142D01*
X49333333Y-51754761D01*
X49428571Y-51802380D01*
X49619047Y-51802380D01*
X49714285Y-51754761D01*
X49761904Y-51707142D01*
X49809523Y-51611904D01*
X49809523Y-50802380D01*
X50809523Y-51802380D02*
X50238095Y-51802380D01*
X50523809Y-51802380D02*
X50523809Y-50802380D01*
X50428571Y-50945238D01*
X50333333Y-51040476D01*
X50238095Y-51088095D01*
X69238095Y-50802380D02*
X69238095Y-51611904D01*
X69285714Y-51707142D01*
X69333333Y-51754761D01*
X69428571Y-51802380D01*
X69619047Y-51802380D01*
X69714285Y-51754761D01*
X69761904Y-51707142D01*
X69809523Y-51611904D01*
X69809523Y-50802380D01*
X70238095Y-50897619D02*
X70285714Y-50850000D01*
X70380952Y-50802380D01*
X70619047Y-50802380D01*
X70714285Y-50850000D01*
X70761904Y-50897619D01*
X70809523Y-50992857D01*
X70809523Y-51088095D01*
X70761904Y-51230952D01*
X70190476Y-51802380D01*
X70809523Y-51802380D01*
X89238095Y-50802380D02*
X89238095Y-51611904D01*
X89285714Y-51707142D01*
X89333333Y-51754761D01*
X89428571Y-51802380D01*
X89619047Y-51802380D01*
X89714285Y-51754761D01*
X89761904Y-51707142D01*
X89809523Y-51611904D01*
X89809523Y-50802380D01*
X90190476Y-50802380D02*
X90809523Y-50802380D01*
X90476190Y-51183333D01*
X90619047Y-51183333D01*
X90714285Y-51230952D01*
X90761904Y-51278571D01*
X90809523Y-51373809D01*
X90809523Y-51611904D01*
X90761904Y-51707142D01*
X90714285Y-51754761D01*
X90619047Y-51802380D01*
X90333333Y-51802380D01*
X90238095Y-51754761D01*
X90190476Y-51707142D01*
X109238095Y-50802380D02*
X109238095Y-51611904D01*
X109285714Y-51707142D01*
X109333333Y-51754761D01*
X109428571Y-51802380D01*
X109619047Y-51802380D01*
X109714285Y-51754761D01*
X109761904Y-51707142D01*
X109809523Y-51611904D01*
X109809523Y-50802380D01*
X110714285Y-51135714D02*
X110714285Y-51802380D01*
X110476190Y-50754761D02*
X110238095Y-51469047D01*
X110857142Y-51469047D01*
X129238095Y-50802380D02*
X129238095Y-51611904D01*
X129285714Y-51707142D01*
X129333333Y-51754761D01*
X129428571Y-51802380D01*
X129619047Y-51802380D01*
X129714285Y-51754761D01*
X129761904Y-51707142D01*
X129809523Y-51611904D01*
X129809523Y-50802380D01*
X130761904Y-50802380D02*
X130285714Y-50802380D01*
X130238095Y-51278571D01*
X130285714Y-51230952D01*
X130380952Y-51183333D01*
X130619047Y-51183333D01*
X130714285Y-51230952D01*
X130761904Y-51278571D01*
X130809523Y-51373809D01*
X130809523Y-51611904D01*
X130761904Y-51707142D01*
X130714285Y-51754761D01*
X130619047Y-51802380D01*
X130380952Y-51802380D01*
X130285714Y-51754761D01*
X130238095Y-51707142D01*
X49238095Y-70802380D02*
X49238095Y-71611904D01*
X49285714Y-71707142D01*
X49333333Y-71754761D01*
X49428571Y-71802380D01*
X49619047Y-71802380D01*
X49714285Y-71754761D01*
X49761904Y-71707142D01*
X49809523Y-71611904D01*
X49809523Y-70802380D01*
X50714285Y-70802380D02*
X50523809Y-70802380D01*
X50428571Y-70850000D01*
X50380952Y-70897619D01*
X50285714Y-71040476D01*
X50238095Y-71230952D01*
X50238095Y-71611904D01*
X50285714Y-71707142D01*
X50333333Y-71754761D01*
X50428571Y-71802380D01*
X50619047Y-71802380D01*
X50714285Y-71754761D01*
X50761904Y-71707142D01*
X50809523Y-71611904D01*
X50809523Y-71373809D01*
X50761904Y-71278571D01*
X50714285Y-71230952D01*
X50619047Y-71183333D01*
X50428571Y-71183333D01*
X50333333Y-71230952D01*
X50285714Y-71278571D01*
X50238095Y-71373809D01*
X69238095Y-70802380D02*
X69238095Y-71611904D01*
X69285714Y-71707142D01*
X69333333Y-71754761D01*
X69428571Y-71802380D01*
X69619047Y-71802380D01*
X69714285Y-71754761D01*
X69761904Y-71707142D01*
X69809523Y-71611904D01*
X69809523Y-70802380D01*
X70190476Y-70802380D02*
X70857142Y-70802380D01*
X70428571Y-71802380D01*
X89238095Y-70802380D02*
X89238095Y-71611904D01*
X89285714Y-71707142D01*
X89333333Y-71754761D01*
X89428571Y-71802380D01*
X89619047Y-71802380D01*
X89714285Y-71754761D01*
X89761904Y-71707142D01*
X89809523Y-71611904D01*
X89809523Y-70802380D01*
X90428571Y-71230952D02*
X90333333Y-71183333D01*
X90285714Y-71135714D01*
X90238095Y-71040476D01*
X90238095Y-70992857D01*
X90285714Y-70897619D01*
X90333333Y-70850000D01*
X90428571Y-70802380D01*
X90619047Y-70802380D01*
X90714285Y-70850000D01*
X90761904Y-70897619D01*
X90809523Y-70992857D01*
X90809523Y-71040476D01*
X90761904Y-71135714D01*
X90714285Y-71183333D01*
X90619047Y-71230952D01*
X90428571Y-71230952D01*
X90333333Y-71278571D01*
X90285714Y-71326190D01*
X90238095Y-71421428D01*
X90238095Y-71611904D01*
X90285714Y-71707142D01*
X90333333Y-71754761D01*
X90428571Y-71802380D01*
X90619047Y-71802380D01*
X90714285Y-71754761D01*
X90761904Y-71707142D01*
X90809523Y-71611904D01*
X90809523Y-71421428D01*
X90761904Y-71326190D01*
X90714285Y-71278571D01*
X90619047Y-71230952D01*
X109238095Y-70802380D02*
X109238095Y-71611904D01*
X109285714Y-71707142D01*
X109333333Y-71754761D01*
X109428571Y-71802380D01*
X109619047Y-71802380D01*
X109714285Y-71754761D01*
X109761904Y-71707142D01*
X109809523Y-71611904D01*
X109809523Y-70802380D01*
X110333333Y-71802380D02*
X110523809Y-71802380D01*
X110619047Y-71754761D01*
X110666666Y-71707142D01*
X110761904Y-71564285D01*
X110809523Y-71373809D01*
X110809523Y-70992857D01*
X110761904Y-70897619D01*
X110714285Y-70850000D01*
X110619047Y-70802380D01*
X110428571Y-70802380D01*
X110333333Y-70850000D01*
X110285714Y-70897619D01*
X110238095Y-70992857D01*
X110238095Y-71230952D01*
X110285714Y-71326190D01*
X110333333Y-71373809D01*
X110428571Y-71421428D01*
X110619047Y-71421428D01*
X110714285Y-71373809D01*
X110761904Y-71326190D01*
X110809523Y-71230952D01*
X128761904Y-70802380D02*
X128761904Y-71611904D01*
X128809523Y-71707142D01*
X128857142Y-71754761D01*
X128952380Y-71802380D01*
X129142857Y-71802380D01*
X129238095Y-71754761D01*
X129285714Y-71707142D01*
X129333333Y-71611904D01*
X129333333Y-70802380D01*
X130333333Y-71802380D02*
X129761904Y-71802380D01*
X130047619Y-71802380D02*
X130047619Y-70802380D01*
X129952380Y-70945238D01*
X129857142Y-71040476D01*
X129761904Y-71088095D01*
X130952380Y-70802380D02*
X131047619Y-70802380D01*
X131142857Y-70850000D01*
X131190476Y-70897619D01*
X131238095Y-70992857D01*
X131285714Y-71183333D01*
X131285714Y-71421428D01*
X131238095Y-71611904D01*
X131190476Y-71707142D01*
X131142857Y-71754761D01*
X131047619Y-71802380D01*
X130952380Y-71802380D01*
X130857142Y-71754761D01*
X130809523Y-71707142D01*
X130761904Y-71611904D01*
X130714285Y-71421428D01*
X130714285Y-71183333D01*
X130761904Y-70992857D01*
X130809523Y-70897619D01*
X130857142Y-70850000D01*
X130952380Y-70802380D01*
X148761904Y-70802380D02*
X148761904Y-71611904D01*
X148809523Y-71707142D01*
X148857142Y-71754761D01*
X148952380Y-71802380D01*
X149142857Y-71802380D01*
X149238095Y-71754761D01*
X149285714Y-71707142D01*
X149333333Y-71611904D01*
X149333333Y-70802380D01*
X150333333Y-71802380D02*
X149761904Y-71802380D01*
X150047619Y-71802380D02*
X150047619Y-70802380D01*
X149952380Y-70945238D01*
X149857142Y-71040476D01*
X149761904Y-71088095D01*
X150714285Y-70897619D02*
X150761904Y-70850000D01*
X150857142Y-70802380D01*
X151095238Y-70802380D01*
X151190476Y-70850000D01*
X151238095Y-70897619D01*
X151285714Y-70992857D01*
X151285714Y-71088095D01*
X151238095Y-71230952D01*
X150666666Y-71802380D01*
X151285714Y-71802380D01*
X148761904Y-50802380D02*
X148761904Y-51611904D01*
X148809523Y-51707142D01*
X148857142Y-51754761D01*
X148952380Y-51802380D01*
X149142857Y-51802380D01*
X149238095Y-51754761D01*
X149285714Y-51707142D01*
X149333333Y-51611904D01*
X149333333Y-50802380D01*
X150333333Y-51802380D02*
X149761904Y-51802380D01*
X150047619Y-51802380D02*
X150047619Y-50802380D01*
X149952380Y-50945238D01*
X149857142Y-51040476D01*
X149761904Y-51088095D01*
X151285714Y-51802380D02*
X150714285Y-51802380D01*
X151000000Y-51802380D02*
X151000000Y-50802380D01*
X150904761Y-50945238D01*
X150809523Y-51040476D01*
X150714285Y-51088095D01*
X34686666Y-61962380D02*
X34686666Y-62676666D01*
X34639047Y-62819523D01*
X34543809Y-62914761D01*
X34400952Y-62962380D01*
X34305714Y-62962380D01*
X35686666Y-62962380D02*
X35115238Y-62962380D01*
X35400952Y-62962380D02*
X35400952Y-61962380D01*
X35305714Y-62105238D01*
X35210476Y-62200476D01*
X35115238Y-62248095D01*
M02*
