M48
; DRILL file {KiCad (5.1.4)-1} date 29/11/2019 19:55:26
; FORMAT={3:3/ absolute / metric / suppress leading zeros}
; #@! TF.CreationDate,2019-11-29T19:55:26+00:00
; #@! TF.GenerationSoftware,Kicad,Pcbnew,(5.1.4)-1
FMAT,2
METRIC,TZ
T1C0.400
T2C0.762
T3C1.000
T4C3.200
%
G90
G05
T1
X38400Y-67600
X39250Y-66000
X40000Y-85000
X40750Y-60000
X40750Y-80000
X41000Y-87500
X47250Y-56750
X47250Y-63250
X47250Y-73000
X47250Y-76750
X47250Y-83250
X50000Y-65000
X50000Y-85000
X51500Y-59000
X51500Y-79000
X52500Y-75500
X52500Y-81250
X52750Y-55500
X52750Y-61250
X53750Y-70000
X54750Y-68000
X54750Y-88000
X67250Y-56750
X67250Y-63250
X67250Y-76750
X67250Y-83250
X70000Y-65000
X70000Y-85000
X71500Y-59000
X71500Y-79000
X72500Y-75500
X72500Y-81250
X72750Y-55500
X72750Y-61250
X74750Y-68000
X74750Y-88000
X87250Y-56750
X87250Y-63250
X87250Y-76750
X87250Y-83250
X90000Y-65000
X90000Y-85000
X91500Y-59000
X91500Y-79000
X92500Y-55500
X92500Y-75500
X92500Y-81250
X92750Y-61250
X94750Y-68000
X94750Y-88000
X107250Y-56750
X107250Y-63250
X107250Y-76750
X107250Y-83250
X110000Y-65000
X110000Y-85000
X111500Y-59000
X111500Y-79000
X112500Y-55500
X112500Y-75500
X112500Y-81250
X112750Y-61250
X114750Y-68000
X114750Y-88000
X127250Y-56750
X127250Y-63250
X127250Y-76750
X127250Y-83250
X130000Y-65000
X130000Y-85000
X131500Y-59000
X131500Y-79000
X132500Y-55500
X132500Y-75500
X132500Y-81250
X132750Y-61250
X134750Y-68000
X134750Y-88000
X147250Y-56750
X147250Y-63250
X147250Y-76750
X147250Y-83250
X150000Y-65000
X150000Y-85000
X151500Y-59000
X151500Y-79000
X152500Y-55500
X152500Y-75500
X152500Y-81250
X152750Y-61250
X154750Y-68000
X154750Y-88000
T2
X122500Y-71250
X122500Y-73750
X122500Y-76250
X122500Y-78750
X122500Y-81250
X122500Y-83750
X122500Y-86250
X122500Y-88750
X137500Y-71250
X137500Y-73750
X137500Y-76250
X137500Y-78750
X137500Y-81250
X137500Y-83750
X137500Y-86250
X137500Y-88750
X62500Y-51250
X62500Y-53750
X62500Y-56250
X62500Y-58750
X62500Y-61250
X62500Y-63750
X62500Y-66250
X62500Y-68750
X77500Y-51250
X77500Y-53750
X77500Y-56250
X77500Y-58750
X77500Y-61250
X77500Y-63750
X77500Y-66250
X77500Y-68750
X142500Y-51250
X142500Y-53750
X142500Y-56250
X142500Y-58750
X142500Y-61250
X142500Y-63750
X142500Y-66250
X142500Y-68750
X157500Y-51250
X157500Y-53750
X157500Y-56250
X157500Y-58750
X157500Y-61250
X157500Y-63750
X157500Y-66250
X157500Y-68750
X42500Y-51250
X42500Y-53750
X42500Y-56250
X42500Y-58750
X42500Y-61250
X42500Y-63750
X42500Y-66250
X42500Y-68750
X57500Y-51250
X57500Y-53750
X57500Y-56250
X57500Y-58750
X57500Y-61250
X57500Y-63750
X57500Y-66250
X57500Y-68750
X102500Y-51250
X102500Y-53750
X102500Y-56250
X102500Y-58750
X102500Y-61250
X102500Y-63750
X102500Y-66250
X102500Y-68750
X117500Y-51250
X117500Y-53750
X117500Y-56250
X117500Y-58750
X117500Y-61250
X117500Y-63750
X117500Y-66250
X117500Y-68750
X102500Y-71250
X102500Y-73750
X102500Y-76250
X102500Y-78750
X102500Y-81250
X102500Y-83750
X102500Y-86250
X102500Y-88750
X117500Y-71250
X117500Y-73750
X117500Y-76250
X117500Y-78750
X117500Y-81250
X117500Y-83750
X117500Y-86250
X117500Y-88750
X42500Y-71250
X42500Y-73750
X42500Y-76250
X42500Y-78750
X42500Y-81250
X42500Y-83750
X42500Y-86250
X42500Y-88750
X57500Y-71250
X57500Y-73750
X57500Y-76250
X57500Y-78750
X57500Y-81250
X57500Y-83750
X57500Y-86250
X57500Y-88750
X82500Y-51250
X82500Y-53750
X82500Y-56250
X82500Y-58750
X82500Y-61250
X82500Y-63750
X82500Y-66250
X82500Y-68750
X97500Y-51250
X97500Y-53750
X97500Y-56250
X97500Y-58750
X97500Y-61250
X97500Y-63750
X97500Y-66250
X97500Y-68750
X122500Y-51250
X122500Y-53750
X122500Y-56250
X122500Y-58750
X122500Y-61250
X122500Y-63750
X122500Y-66250
X122500Y-68750
X137500Y-51250
X137500Y-53750
X137500Y-56250
X137500Y-58750
X137500Y-61250
X137500Y-63750
X137500Y-66250
X137500Y-68750
X142500Y-71250
X142500Y-73750
X142500Y-76250
X142500Y-78750
X142500Y-81250
X142500Y-83750
X142500Y-86250
X142500Y-88750
X157500Y-71250
X157500Y-73750
X157500Y-76250
X157500Y-78750
X157500Y-81250
X157500Y-83750
X157500Y-86250
X157500Y-88750
X82500Y-71250
X82500Y-73750
X82500Y-76250
X82500Y-78750
X82500Y-81250
X82500Y-83750
X82500Y-86250
X82500Y-88750
X97500Y-71250
X97500Y-73750
X97500Y-76250
X97500Y-78750
X97500Y-81250
X97500Y-83750
X97500Y-86250
X97500Y-88750
X62500Y-71250
X62500Y-73750
X62500Y-76250
X62500Y-78750
X62500Y-81250
X62500Y-83750
X62500Y-86250
X62500Y-88750
X77500Y-71250
X77500Y-73750
X77500Y-76250
X77500Y-78750
X77500Y-81250
X77500Y-83750
X77500Y-86250
X77500Y-88750
T3
X33750Y-64840
X33750Y-67380
X33750Y-69920
X33750Y-72460
X33750Y-75000
X36290Y-64840
X36290Y-67380
X36290Y-69920
X36290Y-72460
X36290Y-75000
T4
X165000Y-55000
X35000Y-85000
X165000Y-85000
X35000Y-55000
T0
M30
